<?xml version="1.0" encoding="utf-8"?>
<!-- Generator: Adobe Illustrator 19.0.0, SVG Export Plug-In . SVG Version: 6.00 Build 0)  -->
<svg version="1.1" xmlns="http://www.w3.org/2000/svg" xmlns:xlink="http://www.w3.org/1999/xlink" x="0px" y="0px"
	 viewBox="406 138.8 1158.9 207" style="enable-background:new 406 138.8 1158.9 207;" xml:space="preserve">
<style type="text/css">
	.st0{display:none;}
	.st1{display:inline;fill:#FFFFFF;}
	.st2{display:inline;}
	.st3{fill:#D36B6A;}
	.st4{fill:#C96867;}
	.st5{fill:#FFFFFF;}
	.st6{font-family:'ModernSans';}
	.st7{font-size:220px;}
	.st8{fill:#FF553F;}
	.st9{fill:#F38073;}
</style>
<g id="Camada_1" class="st0">
	<ellipse id="XMLID_79_" class="st1" cx="482.9" cy="229.6" rx="53.2" ry="53"/>
	<g id="XMLID_87_" class="st2">
		<path id="XMLID_104_" d="M597.6,338l24.8-173.5h2.8l70.5,142.4l69.9-142.4h2.8l25,173.5h-17l-17.1-124.1L697.9,338h-4.4l-62.1-125
			l-17,125H597.6z"/>
		<path id="XMLID_101_" d="M883.9,164.5l81,173.5h-18.7l-27.3-57.1h-74.8l-27,57.1h-19.3l82-173.5H883.9z M881.8,201.4L852,264.2
			h59.3L881.8,201.4z"/>
		<path id="XMLID_98_" d="M978.2,164.5h34.6c19.3,0,32.3,0.8,39.2,2.4c10.3,2.4,18.7,7.4,25.1,15.2c6.4,7.8,9.7,17.3,9.7,28.6
			c0,9.5-2.2,17.8-6.7,24.9c-4.4,7.2-10.8,12.6-19.1,16.2c-8.3,3.7-19.7,5.5-34.2,5.6l62.4,80.6h-21.5l-62.4-80.6h-9.8V338h-17.3
			V164.5z M995.6,181.5v59l29.9,0.2c11.6,0,20.1-1.1,25.7-3.3c5.6-2.2,9.9-5.7,13-10.6c3.1-4.9,4.7-10.2,4.7-16.2
			c0-5.8-1.6-11.1-4.7-15.9c-3.2-4.8-7.3-8.2-12.4-10.2c-5.1-2-13.6-3.1-25.5-3.1h-30.7V181.5z"/>
		<path id="XMLID_96_" d="M1109.4,164.5h17.7v65.1l69.4-65.1h23.3l-83.3,77.9l89.8,95.7h-23.1l-76.1-80.8V338h-17.7L1109.4,164.5
			L1109.4,164.5z"/>
		<path id="XMLID_93_" d="M1290,338V164.5h36c26,0,44.8,2.1,56.5,6.3c16.8,5.9,30,16.1,39.5,30.7c9.5,14.6,14.2,31.9,14.2,52
			c0,17.4-3.8,32.7-11.3,45.9c-7.5,13.2-17.3,23-29.3,29.3c-12,6.3-28.8,9.4-50.4,9.4H1290V338z M1306.7,321.6h20.1
			c24,0,40.6-1.5,49.9-4.5c13.1-4.2,23.3-11.9,30.8-22.9s11.2-24.5,11.2-40.5c0-16.7-4.1-31-12.2-42.9c-8.1-11.9-19.4-20-33.9-24.4
			c-10.9-3.3-28.7-5-53.7-5h-12.3L1306.7,321.6L1306.7,321.6z"/>
		<path id="XMLID_90_" d="M1526.2,164.5l80.9,173.5h-18.7l-27.3-57.1h-74.8l-27,57.1H1440l82-173.5H1526.2z M1524,201.4l-29.7,62.8
			h59.3L1524,201.4z"/>
		<path id="XMLID_88_" d="M1576.4,164.5h20l44.4,71.6l43.7-71.6h20.1l-55,90.6V338h-17.1v-82.9L1576.4,164.5z"/>
	</g>
	<g id="XMLID_83_" class="st2">
		<path id="XMLID_84_" class="st3" d="M487.1,165.4c4.4,0.9,8.8,1.7,13.2,2.8c43.1,10.7,61.2,60.1,35.3,96.1
			c-8.7,12.1-17,24.5-25.5,36.7c-8.3,12-16.7,24.1-25.7,37c-1.6-2.1-2.9-3.8-4.1-5.5c-16.4-23.6-32.8-47.1-49-70.7
			c-25.5-37.1-1.7-89.3,43.1-95.1c2.4-0.3,4.8-1,7.3-1.4C483.5,165.4,485.3,165.4,487.1,165.4z M536.1,228.3
			c0-27.9-23.3-50.7-51.9-50.7c-28.2,0-51.5,22.8-51.6,50.3c-0.1,28.1,22.8,50.9,51.5,51C512.6,279.1,536.1,256.3,536.1,228.3z"/>
	</g>
	<g id="XMLID_81_" class="st2">
		<path id="XMLID_82_" class="st4" d="M503.4,250.3c-1.3,0-2.4-0.6-3.5-1.3c-8.5-5.3-16.9-10.6-25.3-16c-2-1.3-3.2-3.1-2.9-5.6
			c0.3-2.4,1.7-3.9,4-4.4c1.7-0.4,2.5-1.6,3.3-2.8c4.1-5.8,8.2-11.6,12.3-17.4c0.4-0.6,0.8-1.2,1.3-1.8c1.1-1.3,2.4-2.3,4.1-1
			c1.5,1.2,1.2,2.8,0.2,4.3c-3.1,4.4-6.3,8.8-9.4,13.2c-1.2,1.6-2.2,3.4-3.5,4.9c-1.8,2.2-1.1,3.4,1.1,4.8
			c6.7,4.1,13.3,8.4,19.9,12.6c2.1,1.4,3.9,3,3.6,5.9C508.2,248.4,506.1,250.3,503.4,250.3z"/>
	</g>
</g>
<g id="Camada_2">
	<ellipse id="XMLID_5_" class="st5" cx="495.9" cy="215.9" rx="53.2" ry="53"/>
	<g id="XMLID_3_">
		<path id="XMLID_4_" class="st3" d="M499.1,152.6c4.4,0.9,8.8,1.7,13.2,2.8c43.1,10.7,61.2,60.1,35.3,96.1
			c-8.7,12.1-17,24.5-25.5,36.7c-8.3,12-16.7,24.1-25.7,37c-1.6-2.1-2.9-3.8-4.1-5.5c-16.4-23.6-32.8-47.1-49-70.7
			c-25.5-37.1-1.7-89.3,43.1-95.1c2.4-0.3,4.8-1,7.3-1.4C495.5,152.6,497.3,152.6,499.1,152.6z M548.1,215.5
			c0-27.9-23.3-50.7-51.9-50.7c-28.2,0-51.5,22.8-51.6,50.3c-0.1,28.1,22.8,50.9,51.5,51C524.6,266.3,548.1,243.5,548.1,215.5z"/>
	</g>
	<g id="XMLID_1_">
		<path id="XMLID_2_" class="st4" d="M515.4,238.3c-1.3,0-2.4-0.6-3.5-1.3c-8.5-5.3-16.9-10.6-25.3-16c-2-1.3-3.2-3.1-2.9-5.6
			c0.3-2.4,1.7-3.9,4-4.4c1.7-0.4,2.5-1.6,3.3-2.8c4.1-5.8,8.2-11.6,12.3-17.4c0.4-0.6,0.8-1.2,1.3-1.8c1.1-1.3,2.4-2.3,4.1-1
			c1.5,1.2,1.2,2.8,0.2,4.3c-3.1,4.4-6.3,8.8-9.4,13.2c-1.2,1.6-2.2,3.4-3.5,4.9c-1.8,2.2-1.1,3.4,1.1,4.8
			c6.7,4.1,13.3,8.4,19.9,12.6c2.1,1.4,3.9,3,3.6,5.9C520.2,236.4,518.1,238.3,515.4,238.3z"/>
	</g>
	<g>
		<path class="st5" d="M610.6,165.3c0.9-0.1,2.3-0.3,4.2-0.3c1.9-0.1,3.7-0.1,5.3-0.1c1.6,0,3.4,0,5.3,0.1c1.9,0.1,3.4,0.2,4.4,0.3
			L674,270.7l43.8-105.4c0.9-0.1,2.3-0.3,4.3-0.3c2-0.1,3.7-0.1,5.2-0.1c1.5,0,3.2,0,5.1,0.1c1.9,0.1,3.4,0.2,4.4,0.3l7.7,158.2
			c-1,0.1-2.2,0.3-3.5,0.3c-1.3,0.1-2.6,0.1-4,0.1c-1.5,0-2.9,0-4.3-0.1c-1.4-0.1-2.5-0.2-3.4-0.3l-5.9-134.6l-43.6,101.9
			c-1,0.3-2.1,0.4-3.1,0.4c-1,0-2.1,0-3.1,0c-1,0-2,0-3,0c-1,0-1.9-0.1-3-0.4l-43.1-102.1l-6.4,134.9c-1,0.1-2.2,0.3-3.5,0.3
			c-1.3,0.1-2.6,0.1-4,0.1c-1.5,0-2.9,0-4.3-0.1c-1.4-0.1-2.5-0.2-3.4-0.3L610.6,165.3z"/>
		<path class="st5" d="M820.5,165.3c1-0.1,2.4-0.3,4.2-0.3c1.8-0.1,3.4-0.1,4.8-0.1c1.6,0,3.3,0,4.9,0.1c1.7,0.1,3,0.2,4.1,0.3
			l52.8,158.2c-0.9,0.1-2.1,0.3-3.7,0.3c-1.6,0.1-3.2,0.1-4.6,0.1c-1.3,0-2.7,0-4.2-0.1c-1.5-0.1-2.7-0.2-3.7-0.3l-13.2-40.3h-65.1
			l-12.5,40.3c-1.2,0.1-2.5,0.3-4.1,0.3c-1.5,0.1-3,0.1-4.3,0.1c-1.5,0-3,0-4.5-0.1c-1.5-0.1-2.8-0.2-3.6-0.3L820.5,165.3z
			 M857.5,269.2l-28.4-88l-27.9,88H857.5z"/>
		<path class="st5" d="M918,164.7c3.2-0.3,6-0.6,8.5-0.8c2.4-0.2,4.8-0.4,7-0.7c2.3-0.2,4.7-0.4,7.2-0.4c2.5-0.1,5.4-0.1,8.8-0.1
			c7,0,14,0.7,20.8,2.2c6.8,1.5,12.9,4,18.4,7.6c5.4,3.6,9.8,8.4,13.1,14.5c3.3,6.1,5,13.8,5,23c0,5.7-1,10.9-3.1,15.6
			c-2.1,4.7-4.7,8.9-8,12.6c-3.3,3.7-7.1,7-11.4,9.7c-4.3,2.7-8.8,4.9-13.3,6.7l-1.8,0.7l50.4,68.2c-1.5,0.3-2.9,0.4-4.4,0.4
			c-1.5,0-2.9,0-4.4,0c-1.5,0-2.9,0-4.3,0c-1.4,0-2.8-0.1-4.3-0.4l-55.4-73.3v-0.9l4.8-1.3c5-1.3,9.8-3,14.5-5.2
			c4.7-2.1,8.8-4.7,12.4-7.7c3.6-3,6.5-6.6,8.7-10.7c2.2-4.1,3.3-8.9,3.3-14.5c0-11.4-3.5-20-10.6-25.7c-7-5.7-16.6-8.6-28.6-8.6
			c-3.1,0-5.9,0.1-8.6,0.2c-2.6,0.1-5.8,0.4-9.5,0.9v146.7c-1,0.1-2.3,0.3-3.7,0.3c-1.5,0.1-2.8,0.1-4,0.1c-1.3,0-2.6,0-4-0.1
			c-1.3-0.1-2.5-0.2-3.5-0.3V164.7z"/>
		<path class="st5" d="M1047.1,165.3c1-0.1,2.3-0.3,3.7-0.3c1.5-0.1,2.8-0.1,4-0.1c1.3,0,2.6,0,4,0.1c1.3,0.1,2.5,0.2,3.5,0.3v158.2
			c-1,0.1-2.2,0.3-3.5,0.3c-1.3,0.1-2.6,0.1-4,0.1c-1.5,0-2.9,0-4.3-0.1c-1.4-0.1-2.5-0.2-3.4-0.3V165.3z M1072.6,242.6l55.7-77.2
			c1.2-0.1,2.4-0.3,3.6-0.3c1.2-0.1,2.5-0.1,3.6-0.1c1.6,0,3.2,0,4.6,0.1c1.5,0.1,3,0.2,4.6,0.3l-54.1,75.7l62.5,82.5
			c-1.6,0.1-3.3,0.3-5,0.3c-1.7,0.1-3.3,0.1-4.9,0.1c-1.3,0-2.7,0-4.1-0.1c-1.4-0.1-2.8-0.2-4.1-0.3L1072.6,242.6z"/>
		<path class="st5" d="M1177.5,165.3c2.1-0.3,4.6-0.6,7.6-0.9c3-0.3,6.2-0.5,9.6-0.8c3.4-0.2,6.7-0.4,10.1-0.5
			c3.4-0.1,6.5-0.2,9.2-0.2c13.8,0,25.8,1.9,36,5.6c10.2,3.7,18.6,9.1,25.3,16.1c6.7,7,11.6,15.5,14.9,25.5c3.2,10,4.8,21.4,4.8,34
			c0,54.7-27,82.1-81,82.1c-3.1,0-6.4-0.1-9.9-0.2c-3.5-0.1-6.9-0.3-10.2-0.5c-3.3-0.2-6.4-0.5-9.2-0.9c-2.9-0.4-5.2-0.7-7.2-1
			V165.3z M1192.7,310.3c2.6,0.3,5.8,0.6,9.3,0.9c3.6,0.3,7.3,0.4,11.1,0.4c10.1,0,19.2-1.1,27.4-3.3s15.1-5.9,20.8-11.2
			c5.7-5.3,10.1-12.3,13.2-21c3.1-8.7,4.6-19.6,4.6-32.7c0-22.7-5.8-39.4-17.5-50c-11.7-10.6-27.8-16-48.5-16c-3.4,0-7,0.1-10.9,0.2
			c-3.9,0.1-7.1,0.4-9.6,0.9V310.3z"/>
		<path class="st5" d="M1360.8,165.3c1-0.1,2.4-0.3,4.2-0.3c1.8-0.1,3.4-0.1,4.8-0.1c1.6,0,3.3,0,5,0.1c1.7,0.1,3,0.2,4.1,0.3
			l52.8,158.2c-0.9,0.1-2.1,0.3-3.7,0.3c-1.6,0.1-3.2,0.1-4.6,0.1c-1.3,0-2.7,0-4.2-0.1c-1.5-0.1-2.7-0.2-3.7-0.3l-13.2-40.3H1337
			l-12.5,40.3c-1.2,0.1-2.5,0.3-4.1,0.3c-1.5,0.1-3,0.1-4.3,0.1c-1.5,0-3,0-4.5-0.1c-1.5-0.1-2.8-0.2-3.6-0.3L1360.8,165.3z
			 M1397.8,269.2l-28.4-88l-27.9,88H1397.8z"/>
		<path class="st5" d="M1478.9,264.8l-50.8-99.4c0.9-0.1,2.1-0.3,3.7-0.3c1.6-0.1,3.2-0.1,4.6-0.1c1.3,0,2.9,0,4.7,0.1
			c1.8,0.1,3.3,0.2,4.3,0.3l41.4,83.6l40.7-83.6c1.2-0.1,2.5-0.3,3.9-0.3c1.4-0.1,2.8-0.1,4.1-0.1c1.5,0,3,0,4.6,0.1
			c1.6,0.1,2.9,0.2,3.7,0.3l-49.7,99.4v58.7c-1,0.1-2.2,0.3-3.5,0.3c-1.3,0.1-2.6,0.1-4,0.1c-1.5,0-2.9,0-4.3-0.1
			c-1.4-0.1-2.5-0.2-3.4-0.3V264.8z"/>
	</g>
</g>
<g id="Camada_3" class="st0">
	<text transform="matrix(1 0 0 1 670.7791 270.8171)" class="st2 st6 st7">MARK</text>
	<g class="st2">
		<g>
			<g>
				<path class="st8" d="M604.6,221c12.6-16.5,20.6-36.8,20.6-59.2c0-52.7-42.7-95.4-95.4-95.4c-52.7,0-95.4,42.7-95.4,95.4
					c0,22.3,8,42.7,20.6,59.2c19.1,25,74.9,101.1,74.9,101.1S585.5,246,604.6,221z"/>
				<path class="st9" d="M604.6,221c12.6-16.5,20.6-36.8,20.6-59.2c0-52.7-42.7-95.4-95.4-95.4v255.7
					C529.8,322.2,585.5,246,604.6,221z"/>
				<path class="st9" d="M529.8,232.6c-39,0-70.7-31.7-70.7-70.7c0-39,31.7-70.7,70.7-70.7c39,0,70.7,31.7,70.7,70.7
					C600.5,200.9,568.8,232.6,529.8,232.6z"/>
				<path class="st8" d="M600.5,161.9c0-39-31.7-70.7-70.7-70.7v141.4C568.8,232.6,600.5,200.9,600.5,161.9z"/>
				<path class="st5" d="M529.8,224.4c-34.5,0-62.5-28-62.5-62.5c0-34.5,28-62.5,62.5-62.5c34.5,0,62.5,28,62.5,62.5
					C592.2,196.3,564.2,224.4,529.8,224.4z"/>
			</g>
		</g>
		<g id="XMLID_6_">
			<path id="XMLID_7_" class="st9" d="M556.2,190.8c-1.6,0-2.9-0.7-4.2-1.6c-10.3-6.4-20.5-12.9-30.7-19.4c-2.4-1.6-3.9-3.8-3.5-6.8
				c0.4-2.9,2.1-4.7,4.9-5.3c2.1-0.5,3-1.9,4-3.4c5-7,9.9-14.1,14.9-21.1c0.5-0.7,1-1.5,1.6-2.2c1.3-1.6,2.9-2.8,5-1.2
				c1.8,1.5,1.5,3.4,0.2,5.2c-3.8,5.3-7.6,10.7-11.4,16c-1.5,1.9-2.7,4.1-4.2,5.9c-2.2,2.7-1.3,4.1,1.3,5.8
				c8.1,5,16.1,10.2,24.1,15.3c2.5,1.7,4.7,3.6,4.4,7.2C562,188.5,559.5,190.8,556.2,190.8z"/>
		</g>
	</g>
	<text transform="matrix(1 0 0 1 1258.8378 270.8167)" class="st2 st6 st7">DAY</text>
</g>
</svg>
