<?xml version="1.0" encoding="utf-8"?>
<!-- Generator: Adobe Illustrator 17.0.0, SVG Export Plug-In . SVG Version: 6.00 Build 0)  -->
<!DOCTYPE svg PUBLIC "-//W3C//DTD SVG 1.1//EN" "http://www.w3.org/Graphics/SVG/1.1/DTD/svg11.dtd">
<svg version="1.1" id="Camada_1" xmlns="http://www.w3.org/2000/svg" xmlns:xlink="http://www.w3.org/1999/xlink" x="0px" y="0px"
	 width="300px" height="54px" viewBox="0 0 300 54" enable-background="new 0 0 300 54" xml:space="preserve">
<g>
	<path fill="#212021" d="M50.767,46.175l5.518-38.543h0.626L72.58,39.258L88.097,7.632h0.618l5.546,38.543h-3.776L86.676,18.61
		L73.048,46.175h-0.984l-13.79-27.774l-3.786,27.774H50.767z"/>
	<path fill="#212021" d="M114.362,7.632l17.974,38.543h-4.16l-6.062-12.682h-16.604l-6.004,12.682h-4.297l18.21-38.543H114.362z
		 M113.875,15.821l-6.604,13.952h13.177L113.875,15.821z"/>
	<path fill="#212021" d="M135.299,7.632h7.678c4.279,0,7.179,0.175,8.698,0.525c2.288,0.525,4.148,1.648,5.581,3.371
		s2.148,3.843,2.148,6.362c0,2.099-0.493,3.944-1.48,5.536c-0.987,1.592-2.397,2.794-4.231,3.607
		c-1.834,0.813-4.367,1.229-7.599,1.247l13.861,17.896h-4.766l-13.861-17.896h-2.178v17.896h-3.852V7.632z M139.151,11.405v13.101
		l6.64,0.053c2.572,0,4.475-0.245,5.708-0.734c1.233-0.489,2.196-1.271,2.887-2.345c0.691-1.074,1.037-2.275,1.037-3.603
		c0-1.292-0.35-2.467-1.049-3.524c-0.7-1.057-1.618-1.812-2.756-2.266c-1.137-0.454-3.026-0.682-5.668-0.682H139.151z"/>
	<path fill="#212021" d="M164.438,7.632h3.93v14.464l15.406-14.464h5.175l-18.511,17.293l19.952,21.25h-5.13l-16.893-17.953v17.953
		h-3.93V7.632z"/>
	<path fill="#212021" d="M204.56,46.175V7.632h7.991c5.765,0,9.947,0.463,12.551,1.389c3.737,1.31,6.659,3.581,8.764,6.812
		c2.105,3.232,3.157,7.083,3.157,11.555c0,3.861-0.834,7.258-2.502,10.192s-3.834,5.102-6.498,6.498
		c-2.664,1.398-6.397,2.097-11.201,2.097H204.56z M208.254,42.532h4.454c5.327,0,9.021-0.331,11.083-0.994
		c2.899-0.942,5.179-2.64,6.839-5.092c1.659-2.452,2.489-5.45,2.489-8.993c0-3.717-0.9-6.894-2.699-9.529s-4.306-4.441-7.52-5.419
		c-2.411-0.732-6.385-1.1-11.922-1.1h-2.725V42.532z"/>
	<path fill="#212021" d="M257.018,7.632l17.974,38.543h-4.16l-6.062-12.682h-16.604l-6.004,12.682h-4.297l18.21-38.543H257.018z
		 M256.531,15.821l-6.604,13.952h13.177L256.531,15.821z"/>
	<path fill="#212021" d="M268.155,7.632h4.432l9.862,15.896l9.707-15.896h4.454L284.4,27.755v18.42h-3.799v-18.42L268.155,7.632z"/>
</g>
<path fill="#BC706A" d="M22.216,7.824c0.977,0.202,1.961,0.371,2.928,0.612c9.569,2.381,13.585,13.34,7.85,21.343
	c-1.928,2.691-3.781,5.435-5.666,8.157c-1.856,2.679-3.71,5.359-5.705,8.241c-0.349-0.47-0.637-0.835-0.902-1.216
	c-3.635-5.232-7.287-10.451-10.894-15.702C4.172,21.025,9.447,9.419,19.4,8.144c0.542-0.069,1.074-0.212,1.611-0.32
	C21.412,7.824,21.814,7.824,22.216,7.824z M33.096,21.815c0.001-6.202-5.183-11.271-11.525-11.267
	c-6.256,0.004-11.435,5.054-11.459,11.171c-0.024,6.248,5.067,11.294,11.435,11.335C27.874,33.095,33.094,28.015,33.096,21.815z"/>
<path fill="#FFFFFF" d="M33.096,21.815c-0.001,6.2-5.221,11.28-11.548,11.24c-6.368-0.041-11.459-5.087-11.435-11.335
	c0.023-6.117,5.203-11.167,11.459-11.171C27.912,10.545,33.097,15.613,33.096,21.815z"/>
<path fill="#B36D66" d="M25.828,26.686c-0.296-0.001-0.544-0.131-0.785-0.284c-1.866-1.184-3.735-2.365-5.599-3.553
	c-0.447-0.285-0.713-0.689-0.65-1.241c0.061-0.53,0.387-0.859,0.891-0.969c0.369-0.081,0.547-0.347,0.736-0.612
	c0.915-1.283,1.823-2.57,2.734-3.856c0.095-0.134,0.183-0.275,0.288-0.401c0.244-0.295,0.539-0.516,0.901-0.221
	c0.335,0.273,0.273,0.62,0.043,0.945c-0.695,0.978-1.392,1.954-2.086,2.932c-0.259,0.364-0.488,0.752-0.771,1.095
	c-0.395,0.48-0.234,0.763,0.241,1.056c1.481,0.914,2.944,1.856,4.414,2.789c0.477,0.303,0.867,0.657,0.792,1.3
	C26.904,26.273,26.432,26.697,25.828,26.686z"/>
</svg>
