<?xml version="1.0" encoding="utf-8"?>
<!-- Generator: Adobe Illustrator 17.0.0, SVG Export Plug-In . SVG Version: 6.00 Build 0)  -->
<!DOCTYPE svg PUBLIC "-//W3C//DTD SVG 1.1//EN" "http://www.w3.org/Graphics/SVG/1.1/DTD/svg11.dtd">
<svg version="1.1" id="Camada_1" xmlns="http://www.w3.org/2000/svg" xmlns:xlink="http://www.w3.org/1999/xlink" x="0px" y="0px"
	 width="128px" height="128px" viewBox="0 0 128 128" enable-background="new 0 0 128 128" xml:space="preserve">
<path fill="#D94432" d="M52.7,111.761c-0.766,2.452-1.488,4.77-2.213,7.086c-0.825,2.638-1.898,3.443-4.622,3.452
	c-2.216,0.008-4.432,0.022-6.648-0.001c-2.237-0.023-3.644-1.213-4.062-3.422c-0.83-4.392-1.655-8.786-2.453-13.184
	c-0.167-0.92-0.547-1.552-1.379-2.095c-5.658-3.691-10.31-8.345-13.516-14.363c-0.239-0.449-0.772-0.84-1.258-1.042
	c-2.942-1.221-5.911-2.377-8.87-3.56c-2.21-0.884-2.95-1.959-2.96-4.342c-0.013-3.102-0.023-6.205-0.006-9.307
	c0.013-2.312,0.766-3.4,2.894-4.255c2.957-1.187,5.929-2.336,8.868-3.563c0.522-0.218,1.089-0.643,1.349-1.126
	c2.63-4.884,6.226-8.926,10.619-12.267c0.798-0.607,1.111-1.234,1.074-2.225c-0.148-3.993-1.005-7.803-2.741-11.408
	c-0.153-0.318-0.309-0.636-0.453-0.959c-0.034-0.076-0.022-0.172-0.03-0.259c5.76-1.53,13.023-0.519,16.052,7.087
	c3.268-0.784,6.488-1.786,9.784-2.31c16.176-2.57,31.356-0.111,44.87,9.627c7.079,5.101,12.084,11.776,14.003,20.477
	c0.2,0.905,0.379,1.83,0.41,2.752c0.033,0.958,0.393,1.36,1.35,1.568c5.877,1.281,10.208,6.453,10.53,12.482
	c0.009,0.172-0.03,0.346-0.056,0.624c-1.232,0-2.44,0-3.639,0c-1.117-5.645-3.597-8.596-7.994-9.383
	c-0.107,0.717-0.205,1.437-0.322,2.154c-1.418,8.669-6.099,15.347-12.731,20.826c-0.921,0.761-1.824,1.609-2.877,2.13
	c-1.714,0.849-2.287,2.207-2.573,3.977c-0.636,3.931-1.431,7.836-2.166,11.751c-0.463,2.467-1.795,3.6-4.302,3.62
	c-2.26,0.018-4.521,0.015-6.781-0.008c-2.275-0.023-3.427-0.867-4.121-3.017c-0.707-2.189-1.349-4.4-2.103-6.572
	c-0.124-0.357-0.722-0.845-1.032-0.799C66.013,112.866,59.44,112.827,52.7,111.761z M48.423,52.432
	c9.788-2.698,19.477-2.687,29.213-0.004c0.396-1.327,0.744-2.492,1.121-3.755c-10.559-2.943-20.947-2.964-31.451,0.011
	C47.697,49.994,48.045,51.162,48.423,52.432z M33.83,60.058c-2.126,0.012-3.856,1.765-3.868,3.918
	c-0.012,2.154,1.712,3.926,3.838,3.945c2.161,0.02,3.994-1.822,3.968-3.986C37.743,61.83,35.931,60.046,33.83,60.058z"/>
<path fill="#D94432" d="M63.045,5.685c6.465,0.008,11.687,5.236,11.647,11.662c-0.04,6.458-5.255,11.596-11.745,11.572
	c-6.386-0.024-11.572-5.221-11.577-11.602C51.365,10.872,56.579,5.677,63.045,5.685z M61.154,11.508c0,3.903,0,7.689,0,11.543
	c1.285,0,2.491,0,3.752,0c0-3.882,0-7.668,0-11.543C63.653,11.508,62.477,11.508,61.154,11.508z"/>
</svg>
