<?xml version="1.0" encoding="utf-8"?>
<!-- Generator: Adobe Illustrator 17.0.0, SVG Export Plug-In . SVG Version: 6.00 Build 0)  -->
<!DOCTYPE svg PUBLIC "-//W3C//DTD SVG 1.1//EN" "http://www.w3.org/Graphics/SVG/1.1/DTD/svg11.dtd">
<svg version="1.1" id="Camada_1" xmlns="http://www.w3.org/2000/svg" xmlns:xlink="http://www.w3.org/1999/xlink" x="0px" y="0px"
	 width="128px" height="128px" viewBox="0 0 128 128" enable-background="new 0 0 128 128" xml:space="preserve">
<path fill="#D94432" d="M14.575,55.575c7.616,1.768,13.926-0.256,19.158-5.985c3.8,4.273,8.504,6.636,14.288,6.619
	c5.74-0.016,10.41-2.364,14.179-6.615c7.079,8.424,20.578,9.233,28.515,0.074c5.858,6.423,12.904,8.084,21.222,5.147
	c0,0.509,0,0.949,0,1.389c0,20.1,0,40.199-0.001,60.299c0,3.894-1.835,5.753-5.697,5.753c-28.653,0.002-57.307,0.002-85.96,0
	c-3.887,0-5.702-1.828-5.702-5.738c-0.002-19.889-0.001-39.778-0.001-59.666C14.575,56.475,14.575,56.099,14.575,55.575z
	 M74.422,96.503c6.512-9.534,2.937-20.272-3.897-25.243c-7.107-5.17-16.866-4.522-23.152,1.636
	C41.1,79.042,40.295,88.78,45.34,96.009c4.454,6.381,15.111,10.901,25.209,4.105c0.289,0.272,0.598,0.548,0.891,0.84
	c2.773,2.768,5.54,5.541,8.318,8.304c0.356,0.354,0.723,0.722,1.148,0.979c1.169,0.705,2.717,0.395,3.531-0.651
	c0.815-1.047,0.717-2.382-0.281-3.421c-0.759-0.79-1.541-1.557-2.319-2.327C79.359,101.383,76.878,98.932,74.422,96.503z"/>
<path fill="#D94432" d="M92.538,41.229c-6.208,11.324-22.29,11.131-28.498-0.06c-6.127,11.118-22.147,11.416-28.547,0
	c-0.2,0.304-0.378,0.569-0.55,0.838c-3.736,5.862-10.4,8.716-16.995,7.278c-6.548-1.428-11.403-6.731-12.505-13.507
	c-0.15-0.925,0.111-1.455,0.647-2.081c7.7-8.99,15.392-17.987,23.056-27.008c0.576-0.678,1.151-0.942,2.032-0.941
	c23.298,0.022,46.596,0.024,69.894-0.005c0.959-0.001,1.505,0.296,2.034,1.093c6.029,9.086,12.099,18.145,18.157,27.212
	c0.094,0.14,0.151,0.344,0.282,0.413c1.678,0.888,0.934,2.235,0.57,3.404c-2.043,6.561-6.434,10.654-13.258,11.585
	c-6.602,0.901-11.834-1.726-15.61-7.219c-0.214-0.311-0.405-0.638-0.61-0.954C92.621,41.25,92.572,41.245,92.538,41.229z"/>
<path fill="#FFFFFF" d="M74.422,96.503c2.455,2.429,4.936,4.88,7.414,7.335c0.778,0.771,1.561,1.538,2.319,2.327
	c0.998,1.039,1.096,2.374,0.281,3.421c-0.814,1.046-2.362,1.355-3.531,0.651c-0.425-0.256-0.792-0.624-1.148-0.979
	c-2.777-2.763-5.545-5.537-8.318-8.304c-0.293-0.292-0.602-0.568-0.891-0.84c-10.098,6.795-20.755,2.276-25.209-4.105
	c-5.045-7.228-4.24-16.967,2.034-23.113c6.286-6.158,16.045-6.806,23.152-1.636C77.359,76.231,80.934,86.969,74.422,96.503z
	 M72.543,85.698c0.024-6.909-5.575-12.574-12.455-12.604c-6.94-0.029-12.593,5.53-12.63,12.421
	c-0.038,6.998,5.55,12.645,12.523,12.656C66.928,98.182,72.519,92.631,72.543,85.698z"/>
<path fill="#D94432" d="M72.543,85.698c-0.024,6.932-5.615,12.483-12.562,12.472c-6.973-0.011-12.561-5.657-12.523-12.656
	c0.037-6.891,5.69-12.45,12.63-12.421C66.968,73.124,72.567,78.789,72.543,85.698z"/>
</svg>
