<?xml version="1.0" encoding="utf-8"?>
<!-- Generator: Adobe Illustrator 17.0.0, SVG Export Plug-In . SVG Version: 6.00 Build 0)  -->
<!DOCTYPE svg PUBLIC "-//W3C//DTD SVG 1.1//EN" "http://www.w3.org/Graphics/SVG/1.1/DTD/svg11.dtd">
<svg version="1.1" id="Camada_1" xmlns="http://www.w3.org/2000/svg" xmlns:xlink="http://www.w3.org/1999/xlink" x="0px" y="0px"
	 width="128px" height="128px" viewBox="0 0 128 128" enable-background="new 0 0 128 128" xml:space="preserve">
<path fill="#D94432" d="M63.781,120.046c-0.216-0.225-0.41-0.478-0.652-0.672c-3.391-2.711-5.5-6.171-6.161-10.485
	c-0.039-0.252-0.036-0.532-0.15-0.746c-0.189-0.355-0.41-0.873-0.706-0.942c-0.31-0.072-0.89,0.206-1.066,0.501
	c-1.005,1.679-1.932,3.404-2.865,5.125c-0.165,0.304-0.235,0.661-0.36,1.026c-7.044-7.205-4.96-20.406,4.29-24.998
	c0.431,2.137,0.789,4.287,1.313,6.395c0.421,1.691,0.976,3.358,1.592,4.989c0.845,2.235,2.541,3.43,4.929,3.518
	c2.22,0.082,4.128-1.28,5.041-3.526c1.381-3.396,2.169-6.946,2.691-10.562c0.04-0.277,0.096-0.551,0.148-0.848
	c9.212,4.574,11.453,17.716,4.553,24.821c-1.025-1.835-2.039-3.746-3.162-5.591c-0.256-0.42-0.888-0.611-1.347-0.907
	c-0.263,0.473-0.688,0.922-0.762,1.423c-0.68,4.559-2.864,8.204-6.504,11.004c-0.157,0.121-0.258,0.315-0.385,0.475
	C64.073,120.046,63.927,120.046,63.781,120.046z"/>
<path fill="#D94432" d="M7.946,63.554c0.968-0.16,1.961-0.229,2.898-0.497c3.617-1.038,6.238-4.294,6.556-8.052
	c0.05-0.588-0.028-1.262,1-0.956c0.139,0.779,0.234,1.605,0.437,2.404c0.981,3.846,4.127,6.538,8.067,6.943
	c0.217,0.022,0.462-0.006,0.644,0.087c0.189,0.096,0.465,0.343,0.438,0.468c-0.046,0.215-0.267,0.503-0.467,0.554
	c-0.524,0.136-1.087,0.116-1.617,0.236c-4.081,0.929-6.749,3.93-7.339,8.221c-0.079,0.574,0.04,1.378-1.051,0.961
	c-0.076-0.621-0.109-1.277-0.243-1.911c-0.876-4.153-4.13-7.038-8.355-7.442c-0.325-0.031-0.646-0.093-0.969-0.14
	C7.946,64.138,7.946,63.846,7.946,63.554z"/>
<path fill="#D94432" d="M120.054,41.22c-2.999-0.067-5.233,1.861-5.706,4.898c-0.041,0.265-0.246,0.504-0.375,0.755
	c-0.161-0.253-0.425-0.49-0.467-0.762c-0.419-2.7-2.253-4.519-4.959-4.92c-0.283-0.042-0.535-0.295-0.741-0.601
	c1.682-0.295,3.245-0.709,4.213-2.037c0.68-0.932,0.995-2.129,1.482-3.203c0.12-0.265,0.277-0.515,0.583-0.724
	c0.335,1.865,0.911,3.472,2.412,4.591c1.052,0.783,2.225,1.219,3.56,1.127C120.054,40.636,120.054,40.928,120.054,41.22z"/>
<path fill="#D94432" d="M68.09,82.834c-0.581,3.795-1.073,7.433-1.724,11.042c-0.263,1.456-0.827,2.867-1.354,4.261
	c-0.166,0.439-0.655,0.756-0.996,1.129c-0.35-0.361-0.857-0.661-1.027-1.093c-1.707-4.351-2.529-8.887-2.687-13.549
	c-0.019-0.573-0.003-1.147-0.003-2.022c-1.738,0.666-3.321,1.117-4.759,1.851c-6,3.067-10.166,7.704-11.96,14.317
	c-0.096,0.354-0.511,0.881-0.76,0.871c-0.369-0.014-0.86-0.356-1.061-0.698c-2.483-4.225-3.598-8.82-3.458-13.701
	c0.192-6.667,2.652-12.394,7.257-17.224c0.301-0.316,0.449-0.98,0.368-1.428c-2.305-12.815-1.701-25.419,2.814-37.708
	c2.809-7.644,7.081-14.363,13.139-19.88c1.516-1.381,2.695-1.405,4.211-0.022c7.41,6.76,12.065,15.179,14.744,24.747
	c3.033,10.835,3.251,21.793,1.194,32.819c-0.13,0.699,0.017,1.139,0.503,1.636c7.887,8.061,9.487,20.82,3.824,30.541
	c-0.239,0.41-0.76,0.654-1.15,0.976c-0.29-0.408-0.707-0.775-0.85-1.229c-2.542-8.043-7.912-13.158-15.964-15.524
	c-0.138-0.04-0.282-0.058-0.425-0.08C67.933,82.86,67.896,82.88,68.09,82.834z M72.875,78.808c0.001-0.001,0.072-0.04,0.101-0.1
	c0.127-0.262,0.253-0.525,0.36-0.796c5.06-12.793,6.155-25.927,3.392-39.396c-0.124-0.604-0.349-0.845-0.999-0.843
	c-7.807,0.022-15.614,0.026-23.422,0c-0.721-0.002-0.948,0.263-1.045,0.913c-0.275,1.836-0.657,3.657-0.897,5.497
	c-1.368,10.484-0.254,20.724,3.122,30.726c0.47,1.393,1.052,2.749,1.551,4.041c1.7-0.451,3.198-0.908,4.725-1.227
	c0.665-0.139,0.898-0.396,0.98-1.046c0.431-3.379,1.325-6.638,2.649-9.777c0.157-0.371,0.354-0.726,0.586-1.196
	c1.446,2.655,2.784,7.223,3.304,10.935c0.05,0.357,0.323,0.891,0.603,0.975C69.518,78.003,71.183,78.382,72.875,78.808z
	 M63.996,14.113c-5.22,5.276-8.688,11.395-11.016,18.279c7.424,0,14.68,0,22.05,0C72.653,25.468,69.2,19.357,63.996,14.113z"/>
<path fill="#D94432" d="M87.575,25.099c0.254-0.189,0.483-0.478,0.767-0.548c1.091-0.271,2.259-0.319,3.289-0.727
	c4.122-1.633,6.583-4.658,7.249-9.082c0.07-0.465,0.122-0.932,0.184-1.41c0.772-0.331,0.839,0.111,0.888,0.698
	c0.259,3.074,1.503,5.672,3.83,7.723c1.928,1.699,4.196,2.586,6.744,2.768c0.584,0.042,0.918,0.182,0.659,0.818
	c-1.095,0.206-2.202,0.286-3.222,0.627c-4.808,1.605-7.439,4.995-8.035,10.012c-0.038,0.321-0.303,0.615-0.647,0.869
	c-0.314-3.134-1.327-5.832-3.514-8.026c-2.191-2.198-4.879-3.236-7.952-3.381C87.737,25.326,87.656,25.212,87.575,25.099z"/>
<path fill="#D94432" d="M34.482,37.097c-4.035,0.641-5.525,2.131-6.12,6.114c-0.335-0.399-0.631-0.591-0.677-0.83
	c-0.602-3.137-2.05-4.592-5.108-5.131c-0.247-0.043-0.452-0.326-0.88-0.653c4.113-0.75,5.464-2.1,6.132-6.131
	c0.332,0.407,0.624,0.603,0.668,0.844c0.565,3.094,2.033,4.567,5.113,5.127C33.855,36.48,34.056,36.764,34.482,37.097z"/>
<path fill="#FFFFFF" d="M72.875,78.808c-1.692-0.426-3.357-0.805-4.989-1.293c-0.28-0.084-0.553-0.617-0.603-0.975
	c-0.52-3.712-1.857-8.28-3.304-10.935c-0.232,0.47-0.429,0.824-0.586,1.196c-1.325,3.139-2.219,6.398-2.649,9.777
	c-0.083,0.649-0.315,0.907-0.98,1.046c-1.527,0.319-3.025,0.776-4.725,1.227c-0.499-1.292-1.081-2.648-1.551-4.041
	c-3.376-10.003-4.49-20.243-3.122-30.726c0.24-1.84,0.622-3.661,0.897-5.497c0.098-0.651,0.324-0.916,1.045-0.913
	c7.807,0.027,15.614,0.022,23.422,0c0.65-0.002,0.875,0.239,0.999,0.843c2.763,13.469,1.668,26.602-3.392,39.396
	c-0.107,0.271-0.233,0.534-0.36,0.796C72.947,78.768,72.876,78.807,72.875,78.808z M70.975,48.692
	c0.013-3.828-3.105-6.988-6.914-7.006c-3.889-0.018-7.048,3.119-7.039,6.989c0.009,3.819,3.129,6.935,6.968,6.961
	C67.78,55.662,70.962,52.499,70.975,48.692z"/>
<path fill="#FFFFFF" d="M63.996,14.113c5.204,5.243,8.658,11.354,11.034,18.279c-7.37,0-14.626,0-22.05,0
	C55.307,25.509,58.775,19.39,63.996,14.113z"/>
<path fill="#D94432" d="M70.975,48.692c-0.013,3.807-3.195,6.969-6.985,6.944c-3.839-0.026-6.958-3.142-6.968-6.961
	c-0.009-3.87,3.15-7.008,7.039-6.989C67.87,41.704,70.988,44.864,70.975,48.692z"/>
</svg>
