<?xml version="1.0" encoding="utf-8"?>
<!-- Generator: Adobe Illustrator 17.0.0, SVG Export Plug-In . SVG Version: 6.00 Build 0)  -->
<!DOCTYPE svg PUBLIC "-//W3C//DTD SVG 1.1//EN" "http://www.w3.org/Graphics/SVG/1.1/DTD/svg11.dtd">
<svg version="1.1" id="Camada_1" xmlns="http://www.w3.org/2000/svg" xmlns:xlink="http://www.w3.org/1999/xlink" x="0px" y="0px"
	 width="60px" height="60px" viewBox="0 0 60 60" enable-background="new 0 0 60 60" xml:space="preserve">
<path fill="#0090E9" d="M30.907,47.604c-1.285,0.432-2.541,0.01-3.759-0.253c-7.511-1.621-13.173-7.638-14.437-15.243
	c-1.617-9.732,5.446-19.55,15.162-21.065c0.693-0.107,1.4-0.123,2.096-0.217c0.713-0.097,0.935,0.151,0.93,0.894
	c-0.032,5.424-0.018,10.849-0.016,16.273c0,0.368,0.022,0.734,0.034,1.102c0.305,0.363,0.259,0.805,0.259,1.228
	c0.007,5.352,0.007,10.705,0,16.056C31.177,46.804,31.213,47.245,30.907,47.604z"/>
<path fill="#F5D241" d="M30.907,47.604c0.004-6.17,0.007-12.339,0.012-18.509c1.468-1.479,2.937-2.959,4.406-4.438
	c0.133-0.425,0.447-0.713,0.74-1.026c1.835-1.958,3.93-3.648,5.78-5.59c0.441-0.463,0.909-0.898,1.302-1.408
	c0.183-0.238,0.352-0.61,0.788-0.425c3.511,3.66,5.317,8.033,5.313,13.096c-0.007,9.135-7.074,17.036-16.146,18.161
	C32.368,47.556,31.642,47.616,30.907,47.604z"/>
<path fill="#FFFFFF" d="M43.934,16.207c-0.242,0.228-0.495,0.446-0.724,0.685c-2.551,2.667-5.234,5.199-7.886,7.764
	c-0.009-5.879-0.012-11.76-0.037-17.639c-0.002-0.492,0.153-0.629,0.629-0.607c4.583,0.219,8.573,1.824,11.905,5.016
	c0.358,0.342,0.324,0.537-0.007,0.866C46.506,13.583,45.225,14.9,43.934,16.207z"/>
</svg>
