<?xml version="1.0" encoding="utf-8"?>
<!-- Generator: Adobe Illustrator 17.0.0, SVG Export Plug-In . SVG Version: 6.00 Build 0)  -->
<!DOCTYPE svg PUBLIC "-//W3C//DTD SVG 1.1//EN" "http://www.w3.org/Graphics/SVG/1.1/DTD/svg11.dtd">
<svg version="1.1" id="Camada_1" xmlns="http://www.w3.org/2000/svg" xmlns:xlink="http://www.w3.org/1999/xlink" x="0px" y="0px"
	 width="200px" height="50px" viewBox="0 0 200 50" enable-background="new 0 0 200 50" xml:space="preserve">
<g>
	<path fill="#2D81C1" d="M20.53,44.742c-1.357,0.457-2.684,0.01-3.97-0.267c-7.934-1.712-13.914-8.068-15.248-16.1
		c-1.708-10.28,5.752-20.65,16.015-22.249c0.732-0.114,1.479-0.13,2.214-0.23c0.754-0.102,0.987,0.16,0.982,0.944
		c-0.034,5.729-0.019,11.459-0.017,17.188c0,0.388,0.023,0.775,0.036,1.164c0.323,0.383,0.274,0.85,0.274,1.297
		c0.008,5.653,0.008,11.307,0,16.959C20.815,43.897,20.854,44.362,20.53,44.742z"/>
	<path fill="#EACA47" d="M20.53,44.742c0.004-6.517,0.008-13.033,0.013-19.55c1.551-1.563,3.102-3.125,4.654-4.688
		c0.141-0.449,0.472-0.754,0.782-1.084c1.938-2.068,4.151-3.853,6.106-5.904c0.466-0.489,0.96-0.948,1.375-1.488
		c0.194-0.252,0.372-0.644,0.832-0.449c3.708,3.866,5.617,8.485,5.611,13.833c-0.008,9.649-7.472,17.994-17.054,19.183
		C22.073,44.691,21.307,44.755,20.53,44.742z"/>
	<path fill="#C64938" d="M34.289,11.579c-0.255,0.241-0.523,0.471-0.765,0.724c-2.694,2.817-5.529,5.491-8.33,8.201
		c-0.009-6.21-0.013-12.421-0.039-18.632c-0.003-0.52,0.161-0.664,0.664-0.641c4.841,0.231,9.055,1.926,12.575,5.298
		c0.378,0.361,0.342,0.568-0.008,0.915C37.007,8.808,35.653,10.198,34.289,11.579z"/>
</g>
<g>
	<path fill="#818080" d="M62.568,77.925c-0.354,0-0.641-0.027-0.859-0.08c-0.219-0.055-0.407-0.124-0.565-0.207l0.148-0.458
		c0.142,0.069,0.314,0.129,0.516,0.177c0.202,0.049,0.433,0.074,0.694,0.074c0.177,0,0.34-0.018,0.491-0.052
		c0.15-0.035,0.279-0.088,0.387-0.159c0.108-0.071,0.193-0.164,0.255-0.277c0.061-0.112,0.092-0.248,0.092-0.405
		c0-0.158-0.032-0.289-0.096-0.392c-0.064-0.103-0.151-0.192-0.262-0.265c-0.111-0.074-0.238-0.137-0.38-0.189
		c-0.143-0.052-0.293-0.102-0.451-0.152c-0.157-0.048-0.317-0.108-0.479-0.176c-0.162-0.069-0.313-0.157-0.451-0.263
		c-0.138-0.105-0.249-0.237-0.336-0.395c-0.086-0.157-0.129-0.352-0.129-0.582c0-0.187,0.031-0.361,0.092-0.521
		c0.062-0.16,0.159-0.297,0.292-0.413c0.133-0.115,0.303-0.206,0.509-0.272c0.207-0.067,0.455-0.1,0.745-0.1
		c0.246,0,0.47,0.024,0.671,0.07c0.202,0.046,0.384,0.112,0.546,0.196l-0.147,0.457c-0.143-0.068-0.308-0.124-0.495-0.166
		c-0.187-0.041-0.379-0.062-0.575-0.062c-0.389,0-0.669,0.074-0.841,0.225c-0.173,0.149-0.258,0.343-0.258,0.579
		c0,0.142,0.029,0.263,0.088,0.362c0.059,0.098,0.139,0.182,0.24,0.254c0.101,0.072,0.219,0.135,0.354,0.189
		c0.135,0.055,0.279,0.106,0.431,0.155c0.177,0.06,0.353,0.125,0.528,0.196s0.332,0.163,0.472,0.273s0.254,0.246,0.34,0.406
		c0.086,0.16,0.129,0.358,0.129,0.594s-0.042,0.44-0.125,0.612c-0.084,0.172-0.201,0.314-0.351,0.428
		c-0.15,0.114-0.33,0.198-0.539,0.255C63.042,77.897,62.815,77.925,62.568,77.925z"/>
	<path fill="#818080" d="M66.73,77.925c-0.379,0-0.706-0.064-0.981-0.192c-0.276-0.128-0.505-0.306-0.687-0.535
		s-0.316-0.499-0.402-0.811c-0.086-0.312-0.129-0.65-0.129-1.014s0.043-0.702,0.129-1.015c0.086-0.312,0.22-0.582,0.402-0.811
		c0.182-0.229,0.411-0.407,0.687-0.535c0.275-0.128,0.603-0.192,0.981-0.192c0.379,0,0.706,0.064,0.981,0.192
		c0.275,0.128,0.504,0.306,0.686,0.535s0.316,0.499,0.403,0.811c0.086,0.313,0.129,0.652,0.129,1.015
		c0,0.363-0.043,0.702-0.129,1.014c-0.086,0.312-0.221,0.582-0.403,0.811s-0.411,0.407-0.686,0.535
		C67.436,77.861,67.109,77.925,66.73,77.925z M66.73,77.46c0.275,0,0.515-0.047,0.72-0.143c0.204-0.096,0.375-0.235,0.513-0.418
		c0.138-0.181,0.24-0.4,0.306-0.657c0.066-0.256,0.099-0.545,0.099-0.87c0-0.325-0.033-0.615-0.099-0.871
		c-0.066-0.256-0.169-0.474-0.306-0.657c-0.138-0.182-0.309-0.321-0.513-0.418c-0.204-0.096-0.444-0.143-0.72-0.143
		s-0.516,0.047-0.723,0.143c-0.207,0.097-0.379,0.235-0.516,0.418c-0.138,0.182-0.24,0.401-0.306,0.657
		c-0.066,0.256-0.1,0.546-0.1,0.871s0.034,0.614,0.1,0.87c0.066,0.257,0.168,0.475,0.306,0.657c0.138,0.182,0.31,0.322,0.516,0.418
		C66.214,77.413,66.455,77.46,66.73,77.46z"/>
	<path fill="#818080" d="M69.505,72.885h0.561v4.458h2.376v0.516h-2.937V72.885z"/>
	<path fill="#818080" d="M74.745,77.925c-0.286,0-0.542-0.04-0.771-0.122c-0.229-0.08-0.424-0.206-0.587-0.376
		c-0.162-0.169-0.287-0.382-0.373-0.638c-0.086-0.256-0.129-0.561-0.129-0.915v-2.989h0.561v2.997c0,0.521,0.112,0.906,0.336,1.155
		c0.224,0.248,0.545,0.372,0.963,0.372s0.739-0.124,0.963-0.372c0.224-0.248,0.336-0.634,0.336-1.155v-2.997h0.561v2.989
		c0,0.355-0.043,0.66-0.129,0.915c-0.086,0.256-0.21,0.469-0.373,0.638c-0.162,0.17-0.358,0.296-0.587,0.376
		C75.287,77.885,75.03,77.925,74.745,77.925z"/>
	<path fill="#818080" d="M79.519,73.321c-0.566,0-1.008,0.176-1.325,0.531c-0.318,0.355-0.476,0.861-0.476,1.521
		c0,0.649,0.158,1.153,0.473,1.509c0.314,0.357,0.755,0.535,1.321,0.535c0.404,0,0.768-0.079,1.092-0.237l0.14,0.473
		c-0.177,0.088-0.365,0.156-0.564,0.202c-0.199,0.047-0.424,0.07-0.675,0.07c-0.404,0-0.752-0.061-1.044-0.185
		c-0.293-0.123-0.535-0.295-0.727-0.516c-0.192-0.221-0.335-0.489-0.428-0.804c-0.094-0.314-0.14-0.664-0.14-1.047
		c0-0.374,0.052-0.719,0.155-1.033c0.104-0.315,0.255-0.585,0.454-0.808c0.199-0.224,0.444-0.399,0.734-0.525
		c0.29-0.125,0.625-0.188,1.004-0.188c0.256,0,0.477,0.021,0.664,0.063c0.187,0.041,0.361,0.099,0.524,0.173l-0.14,0.472
		C80.259,73.39,79.913,73.321,79.519,73.321z M79.268,79.069h-0.591l0.591-0.923h0.347L79.268,79.069z"/>
	<path fill="#818080" d="M84.013,76.494h-2.118l-0.494,1.365h-0.576l1.852-4.974h0.561l1.853,4.974h-0.576L84.013,76.494z
		 M84.057,71.564c-0.005,0.236-0.063,0.419-0.174,0.546s-0.262,0.192-0.454,0.192c-0.113,0-0.21-0.019-0.292-0.056
		c-0.081-0.037-0.156-0.077-0.225-0.122c-0.069-0.044-0.137-0.085-0.203-0.122c-0.066-0.037-0.137-0.056-0.21-0.056
		c-0.098,0-0.168,0.033-0.207,0.1c-0.04,0.066-0.059,0.143-0.059,0.232H81.85c0.005-0.231,0.06-0.41,0.166-0.538
		c0.106-0.128,0.262-0.192,0.469-0.192c0.104,0,0.196,0.019,0.277,0.055c0.081,0.037,0.156,0.076,0.225,0.119
		c0.069,0.042,0.138,0.081,0.207,0.118s0.14,0.056,0.214,0.056c0.098,0,0.164-0.031,0.199-0.092c0.035-0.062,0.052-0.141,0.052-0.24
		C83.659,71.564,84.057,71.564,84.057,71.564z M82.087,75.992h1.742l-0.546-1.476c-0.054-0.167-0.107-0.333-0.158-0.498
		c-0.052-0.165-0.105-0.331-0.159-0.498H82.95c-0.054,0.167-0.107,0.333-0.159,0.498c-0.052,0.165-0.105,0.331-0.158,0.498
		L82.087,75.992z"/>
	<path fill="#818080" d="M87.275,77.925c-0.379,0-0.706-0.064-0.981-0.192c-0.276-0.128-0.505-0.306-0.687-0.535
		s-0.316-0.499-0.402-0.811c-0.086-0.312-0.129-0.65-0.129-1.014s0.043-0.702,0.129-1.015c0.086-0.312,0.22-0.582,0.402-0.811
		s0.411-0.407,0.687-0.535c0.275-0.128,0.603-0.192,0.981-0.192c0.379,0,0.706,0.064,0.981,0.192
		c0.275,0.128,0.504,0.306,0.686,0.535s0.316,0.499,0.403,0.811c0.086,0.313,0.129,0.652,0.129,1.015
		c0,0.363-0.043,0.702-0.129,1.014c-0.086,0.312-0.221,0.582-0.403,0.811s-0.411,0.407-0.686,0.535
		C87.98,77.861,87.654,77.925,87.275,77.925z M87.275,77.46c0.275,0,0.515-0.047,0.72-0.143c0.204-0.096,0.375-0.235,0.513-0.418
		c0.138-0.181,0.24-0.4,0.306-0.657c0.066-0.256,0.099-0.545,0.099-0.87c0-0.325-0.033-0.615-0.099-0.871
		c-0.066-0.256-0.169-0.474-0.306-0.657c-0.138-0.182-0.309-0.321-0.513-0.418c-0.204-0.096-0.444-0.143-0.72-0.143
		s-0.516,0.047-0.723,0.143c-0.207,0.097-0.379,0.235-0.516,0.418c-0.138,0.182-0.24,0.401-0.306,0.657s-0.1,0.546-0.1,0.871
		s0.034,0.614,0.1,0.87c0.066,0.257,0.168,0.475,0.306,0.657c0.138,0.182,0.31,0.322,0.516,0.418
		C86.758,77.413,86.999,77.46,87.275,77.46z"/>
	<path fill="#818080" d="M91.584,72.885h2.944v0.516h-2.383v1.705h2.236v0.516h-2.236v2.236h-0.561V72.885z"/>
	<path fill="#818080" d="M97.444,76.494h-2.118l-0.494,1.365h-0.576l1.852-4.974h0.561l1.853,4.974h-0.576L97.444,76.494z
		 M95.517,75.992h1.742l-0.546-1.476c-0.054-0.167-0.107-0.333-0.158-0.498c-0.052-0.165-0.105-0.331-0.159-0.498h-0.015
		c-0.054,0.167-0.107,0.333-0.159,0.498c-0.052,0.165-0.105,0.331-0.158,0.498L95.517,75.992z M96.772,71.247l0.303,0.413
		l-1.203,0.738l-0.17-0.236L96.772,71.247z"/>
	<path fill="#818080" d="M100.86,73.321c-0.566,0-1.008,0.176-1.325,0.531c-0.318,0.355-0.476,0.861-0.476,1.521
		c0,0.649,0.158,1.153,0.473,1.509c0.314,0.357,0.755,0.535,1.321,0.535c0.404,0,0.768-0.079,1.092-0.237l0.14,0.473
		c-0.177,0.088-0.365,0.156-0.564,0.202c-0.199,0.047-0.424,0.07-0.675,0.07c-0.404,0-0.752-0.061-1.044-0.185
		c-0.293-0.123-0.535-0.295-0.727-0.516c-0.192-0.221-0.335-0.489-0.428-0.804c-0.094-0.314-0.14-0.664-0.14-1.047
		c0-0.374,0.052-0.719,0.155-1.033c0.104-0.315,0.255-0.585,0.454-0.808c0.199-0.224,0.444-0.399,0.734-0.525
		c0.29-0.125,0.625-0.188,1.004-0.188c0.256,0,0.477,0.021,0.664,0.063c0.187,0.041,0.361,0.099,0.524,0.173l-0.14,0.472
		C101.601,73.39,101.254,73.321,100.86,73.321z"/>
	<path fill="#818080" d="M103.185,77.859h-0.561v-4.974h0.561V77.859z"/>
	<path fill="#818080" d="M104.04,72.885h0.561v4.458h2.376v0.516h-2.937V72.885z"/>
	<path fill="#818080" d="M108.97,72.885h3.004v0.509h-2.443v1.638h2.295v0.516h-2.295v1.801h2.487v0.509h-3.048V72.885z"/>
	<path fill="#818080" d="M114.157,72.885h3.004v0.509h-2.443v1.638h2.295v0.516h-2.295v1.801h2.487v0.509h-3.048V72.885z"/>
	<path fill="#818080" d="M117.81,72.885h2.944v0.516h-2.383v1.705h2.236v0.516h-2.236v2.236h-0.561V72.885z"/>
	<path fill="#818080" d="M121.876,77.859h-0.561v-4.974h0.561V77.859z"/>
	<path fill="#818080" d="M124.821,73.321c-0.566,0-1.008,0.176-1.325,0.531c-0.318,0.355-0.476,0.861-0.476,1.521
		c0,0.649,0.158,1.153,0.473,1.509c0.314,0.357,0.755,0.535,1.321,0.535c0.404,0,0.768-0.079,1.092-0.237l0.14,0.473
		c-0.177,0.088-0.365,0.156-0.564,0.202c-0.199,0.047-0.424,0.07-0.675,0.07c-0.404,0-0.752-0.061-1.044-0.185
		c-0.293-0.123-0.535-0.295-0.727-0.516c-0.192-0.221-0.335-0.489-0.428-0.804c-0.094-0.314-0.14-0.664-0.14-1.047
		c0-0.374,0.052-0.719,0.155-1.033c0.104-0.315,0.255-0.585,0.454-0.808c0.199-0.224,0.444-0.399,0.734-0.525
		c0.29-0.125,0.625-0.188,1.004-0.188c0.256,0,0.477,0.021,0.664,0.063c0.187,0.041,0.361,0.099,0.524,0.173l-0.14,0.472
		C125.561,73.39,125.214,73.321,124.821,73.321z"/>
	<path fill="#818080" d="M129.315,76.494h-2.118l-0.494,1.365h-0.576l1.852-4.974h0.561l1.853,4.974h-0.576L129.315,76.494z
		 M127.389,75.992h1.742l-0.546-1.476c-0.054-0.167-0.107-0.333-0.158-0.498c-0.052-0.165-0.105-0.331-0.159-0.498h-0.015
		c-0.054,0.167-0.107,0.333-0.159,0.498s-0.105,0.331-0.158,0.498L127.389,75.992z"/>
	<path fill="#818080" d="M130.51,77.468l2.634-4.074h-2.45v-0.509h3.143v0.399l-2.627,4.066h2.672v0.509h-3.372V77.468z"/>
	<path fill="#818080" d="M139.225,74.42c0,0.227-0.039,0.434-0.118,0.624c-0.079,0.19-0.191,0.355-0.336,0.495
		c-0.145,0.14-0.321,0.249-0.528,0.328c-0.206,0.079-0.438,0.119-0.694,0.119h-0.996v1.874h-0.561v-4.974h1.601
		c0.256,0,0.487,0.04,0.691,0.119c0.204,0.078,0.374,0.187,0.512,0.325c0.138,0.137,0.243,0.3,0.318,0.487
		C139.189,74.002,139.225,74.203,139.225,74.42z M138.664,74.42c0-0.314-0.091-0.563-0.273-0.745
		c-0.181-0.181-0.447-0.273-0.797-0.273h-1.04v2.067h0.996c0.349,0,0.623-0.094,0.82-0.28C138.566,75,138.664,74.745,138.664,74.42z
		"/>
	<path fill="#818080" d="M142.023,76.494h-2.118l-0.494,1.365h-0.576l1.853-4.974h0.561l1.853,4.974h-0.575L142.023,76.494z
		 M140.097,75.992h1.741l-0.546-1.476c-0.054-0.167-0.107-0.333-0.159-0.498c-0.052-0.165-0.104-0.331-0.159-0.498h-0.014
		c-0.055,0.167-0.107,0.333-0.159,0.498c-0.052,0.165-0.104,0.331-0.159,0.498L140.097,75.992z"/>
	<path fill="#818080" d="M146.893,74.357c0,0.361-0.105,0.671-0.313,0.933c-0.209,0.261-0.494,0.436-0.853,0.525l1.203,2.044h-0.613
		l-1.166-1.986h-0.007h-1.092v1.986h-0.554v-4.981h1.764c0.256,0,0.486,0.038,0.69,0.114c0.204,0.077,0.375,0.181,0.513,0.314
		c0.137,0.134,0.243,0.291,0.316,0.47C146.855,73.957,146.893,74.151,146.893,74.357z M146.332,74.361
		c0-0.295-0.092-0.528-0.273-0.697c-0.182-0.17-0.447-0.255-0.797-0.255h-1.21v1.947h1.166c0.349,0,0.622-0.089,0.819-0.265
		C146.233,74.915,146.332,74.672,146.332,74.361z"/>
	<path fill="#818080" d="M150.206,76.494h-2.118l-0.494,1.365h-0.576l1.853-4.974h0.561l1.853,4.974h-0.575L150.206,76.494z
		 M148.28,75.992h1.741l-0.546-1.476c-0.054-0.167-0.107-0.333-0.159-0.498c-0.052-0.165-0.104-0.331-0.159-0.498h-0.014
		c-0.055,0.167-0.107,0.333-0.159,0.498c-0.052,0.165-0.104,0.331-0.159,0.498L148.28,75.992z"/>
	<path fill="#818080" d="M155.305,73.321c-0.566,0-1.007,0.176-1.325,0.531c-0.318,0.355-0.476,0.861-0.476,1.521
		c0,0.649,0.158,1.153,0.472,1.509c0.315,0.357,0.756,0.535,1.322,0.535c0.403,0,0.767-0.079,1.092-0.237l0.14,0.473
		c-0.177,0.088-0.365,0.156-0.565,0.202c-0.199,0.047-0.424,0.07-0.675,0.07c-0.403,0-0.752-0.061-1.043-0.185
		c-0.293-0.123-0.535-0.295-0.728-0.516c-0.192-0.221-0.334-0.489-0.428-0.804c-0.093-0.314-0.14-0.664-0.14-1.047
		c0-0.374,0.052-0.719,0.156-1.033c0.103-0.315,0.255-0.585,0.454-0.808c0.199-0.224,0.443-0.399,0.734-0.525
		c0.291-0.125,0.625-0.188,1.004-0.188c0.256,0,0.476,0.021,0.664,0.063c0.187,0.041,0.362,0.099,0.524,0.173l-0.14,0.472
		C156.045,73.39,155.699,73.321,155.305,73.321z"/>
	<path fill="#818080" d="M160.449,74.357c0,0.361-0.105,0.671-0.313,0.933c-0.209,0.261-0.494,0.436-0.853,0.525l1.203,2.044h-0.613
		l-1.166-1.986H158.7h-1.092v1.986h-0.554v-4.981h1.764c0.256,0,0.486,0.038,0.69,0.114c0.204,0.077,0.375,0.181,0.513,0.314
		c0.137,0.134,0.243,0.291,0.316,0.47C160.412,73.957,160.449,74.151,160.449,74.357z M159.888,74.361
		c0-0.295-0.092-0.528-0.273-0.697c-0.182-0.17-0.447-0.255-0.797-0.255h-1.21v1.947h1.166c0.349,0,0.622-0.089,0.819-0.265
		C159.789,74.915,159.888,74.672,159.888,74.361z"/>
	<path fill="#818080" d="M161.591,77.859h-0.561v-4.974h0.561V77.859z"/>
	<path fill="#818080" d="M165.193,76.494h-2.118l-0.494,1.365h-0.576l1.853-4.974h0.561l1.853,4.974h-0.575L165.193,76.494z
		 M163.267,75.992h1.741l-0.546-1.476c-0.054-0.167-0.107-0.333-0.159-0.498s-0.104-0.331-0.159-0.498h-0.014
		c-0.055,0.167-0.107,0.333-0.159,0.498s-0.104,0.331-0.159,0.498L163.267,75.992z"/>
	<path fill="#818080" d="M168.609,73.321c-0.566,0-1.007,0.176-1.325,0.531s-0.476,0.861-0.476,1.521
		c0,0.649,0.158,1.153,0.472,1.509c0.315,0.357,0.756,0.535,1.322,0.535c0.403,0,0.767-0.079,1.092-0.237l0.14,0.473
		c-0.177,0.088-0.365,0.156-0.565,0.202c-0.199,0.047-0.424,0.07-0.675,0.07c-0.403,0-0.752-0.061-1.043-0.185
		c-0.293-0.123-0.535-0.295-0.728-0.516c-0.192-0.221-0.334-0.489-0.428-0.804c-0.093-0.314-0.14-0.664-0.14-1.047
		c0-0.374,0.052-0.719,0.156-1.033c0.103-0.315,0.255-0.585,0.454-0.808c0.199-0.223,0.443-0.399,0.734-0.525
		c0.291-0.125,0.625-0.188,1.004-0.188c0.256,0,0.476,0.021,0.664,0.063c0.187,0.041,0.362,0.099,0.524,0.173l-0.14,0.472
		C169.35,73.39,169.003,73.321,168.609,73.321z M168.358,79.069h-0.59l0.59-0.923h0.347L168.358,79.069z"/>
	<path fill="#818080" d="M173.104,76.494h-2.118l-0.494,1.365h-0.576l1.853-4.974h0.561l1.853,4.974h-0.575L173.104,76.494z
		 M173.149,71.564c-0.005,0.236-0.063,0.419-0.173,0.546c-0.111,0.128-0.263,0.192-0.455,0.192c-0.112,0-0.21-0.019-0.291-0.056
		s-0.157-0.077-0.226-0.122c-0.069-0.044-0.136-0.085-0.203-0.122c-0.066-0.037-0.136-0.056-0.21-0.056
		c-0.098,0-0.167,0.033-0.206,0.1c-0.039,0.066-0.059,0.143-0.059,0.232h-0.385c0.005-0.231,0.061-0.41,0.167-0.538
		c0.105-0.128,0.262-0.192,0.468-0.192c0.103,0,0.196,0.019,0.277,0.055c0.08,0.037,0.156,0.076,0.225,0.119
		s0.137,0.081,0.206,0.118s0.14,0.056,0.214,0.056c0.098,0,0.165-0.031,0.199-0.092c0.034-0.062,0.052-0.141,0.052-0.24
		C172.749,71.564,173.149,71.564,173.149,71.564z M171.178,75.992h1.741l-0.546-1.476c-0.054-0.167-0.107-0.333-0.159-0.498
		s-0.104-0.331-0.159-0.498h-0.014c-0.055,0.167-0.107,0.333-0.159,0.498s-0.104,0.331-0.159,0.498L171.178,75.992z"/>
	<path fill="#818080" d="M176.365,77.925c-0.378,0-0.705-0.064-0.981-0.192c-0.275-0.128-0.504-0.306-0.686-0.535
		s-0.316-0.499-0.402-0.811c-0.087-0.312-0.13-0.65-0.13-1.014s0.043-0.702,0.13-1.015c0.086-0.312,0.22-0.582,0.402-0.811
		c0.181-0.229,0.41-0.407,0.686-0.535c0.276-0.128,0.603-0.192,0.981-0.192c0.379,0,0.706,0.064,0.981,0.192
		c0.276,0.128,0.505,0.306,0.687,0.535c0.182,0.229,0.316,0.499,0.402,0.811c0.087,0.313,0.13,0.652,0.13,1.015
		c0,0.363-0.043,0.702-0.13,1.014c-0.086,0.312-0.22,0.582-0.402,0.811c-0.181,0.229-0.41,0.407-0.687,0.535
		C177.071,77.861,176.744,77.925,176.365,77.925z M176.365,77.46c0.276,0,0.515-0.047,0.72-0.143
		c0.204-0.096,0.375-0.235,0.513-0.418c0.137-0.181,0.24-0.4,0.306-0.657c0.066-0.256,0.1-0.545,0.1-0.87
		c0-0.325-0.034-0.615-0.1-0.871c-0.066-0.256-0.169-0.474-0.306-0.657c-0.138-0.182-0.309-0.321-0.513-0.418
		c-0.204-0.096-0.443-0.143-0.72-0.143c-0.275,0-0.516,0.047-0.723,0.143c-0.206,0.097-0.379,0.235-0.516,0.418
		c-0.138,0.182-0.24,0.401-0.306,0.657c-0.067,0.256-0.1,0.546-0.1,0.871s0.033,0.614,0.1,0.87c0.066,0.257,0.168,0.475,0.306,0.657
		c0.137,0.182,0.31,0.322,0.516,0.418C175.848,77.413,176.09,77.46,176.365,77.46z"/>
	<path fill="#818080" d="M184.519,75.365c0,0.816-0.206,1.436-0.62,1.859c-0.413,0.424-1.026,0.635-1.837,0.635h-1.388v-4.974h1.388
		c0.811,0,1.424,0.209,1.837,0.628C184.313,73.93,184.519,74.548,184.519,75.365z M183.959,75.365c0-0.349-0.041-0.648-0.125-0.897
		c-0.083-0.248-0.206-0.452-0.366-0.609s-0.358-0.273-0.594-0.346c-0.236-0.074-0.506-0.111-0.811-0.111h-0.827v3.941h0.827
		c0.305,0,0.575-0.037,0.811-0.11c0.236-0.074,0.434-0.191,0.594-0.351c0.16-0.16,0.282-0.366,0.366-0.616
		C183.917,76.014,183.959,75.714,183.959,75.365z"/>
	<path fill="#818080" d="M185.096,72.885h3.003v0.509h-2.442v1.638h2.295v0.516h-2.295v1.801h2.487v0.509h-3.047v-4.973H185.096z"/>
	<path fill="#818080" d="M193.515,74.42c0,0.227-0.039,0.434-0.118,0.624c-0.079,0.19-0.191,0.355-0.336,0.495
		s-0.321,0.249-0.528,0.328c-0.206,0.079-0.438,0.119-0.694,0.119h-0.996v1.874h-0.561v-4.974h1.601c0.256,0,0.487,0.04,0.691,0.119
		c0.204,0.078,0.374,0.187,0.512,0.325c0.138,0.137,0.243,0.3,0.318,0.487C193.479,74.002,193.515,74.203,193.515,74.42z
		 M192.954,74.42c0-0.314-0.091-0.563-0.273-0.745c-0.181-0.181-0.447-0.273-0.797-0.273h-1.04v2.067h0.996
		c0.349,0,0.623-0.094,0.82-0.28C192.856,75,192.954,74.745,192.954,74.42z"/>
	<path fill="#818080" d="M194.046,72.885h3.003v0.509h-2.442v1.638h2.295v0.516h-2.295v1.801h2.487v0.509h-3.047v-4.973H194.046z"/>
	<path fill="#818080" d="M198.924,77.925c-0.354,0-0.64-0.027-0.86-0.08c-0.219-0.055-0.407-0.124-0.564-0.207l0.147-0.458
		c0.142,0.069,0.314,0.129,0.516,0.177c0.202,0.049,0.433,0.074,0.694,0.074c0.177,0,0.34-0.018,0.491-0.052
		c0.149-0.035,0.279-0.088,0.388-0.159s0.193-0.164,0.255-0.277c0.061-0.112,0.092-0.248,0.092-0.405
		c0-0.158-0.032-0.289-0.096-0.392s-0.152-0.192-0.262-0.265c-0.11-0.074-0.237-0.137-0.38-0.189
		c-0.142-0.052-0.293-0.102-0.449-0.152c-0.158-0.048-0.318-0.108-0.48-0.176c-0.162-0.069-0.312-0.157-0.449-0.263
		c-0.138-0.105-0.251-0.237-0.336-0.395c-0.087-0.157-0.129-0.352-0.129-0.582c0-0.187,0.03-0.361,0.092-0.521
		c0.062-0.16,0.159-0.297,0.292-0.413c0.133-0.115,0.302-0.206,0.509-0.272c0.206-0.067,0.455-0.1,0.745-0.1
		c0.245,0,0.47,0.024,0.671,0.07c0.202,0.046,0.383,0.112,0.546,0.196l-0.147,0.457c-0.143-0.068-0.308-0.124-0.495-0.166
		c-0.187-0.041-0.378-0.062-0.575-0.062c-0.389,0-0.669,0.074-0.841,0.225c-0.172,0.149-0.259,0.343-0.259,0.579
		c0,0.142,0.03,0.263,0.089,0.362c0.059,0.098,0.139,0.182,0.24,0.254c0.101,0.072,0.219,0.135,0.354,0.189
		c0.136,0.055,0.279,0.106,0.432,0.155c0.177,0.06,0.354,0.125,0.528,0.196s0.332,0.163,0.472,0.273s0.254,0.246,0.339,0.406
		c0.087,0.16,0.13,0.358,0.13,0.594s-0.042,0.44-0.126,0.612s-0.201,0.314-0.351,0.428c-0.151,0.113-0.33,0.198-0.539,0.255
		C199.397,77.897,199.17,77.925,198.924,77.925z"/>
	<path fill="#818080" d="M202.104,78.509c0.227,0,0.41-0.058,0.55-0.173s0.235-0.255,0.283-0.418
		c-0.354-0.014-0.66-0.089-0.919-0.221c-0.258-0.133-0.472-0.312-0.642-0.539c-0.169-0.226-0.295-0.492-0.376-0.797
		c-0.081-0.305-0.122-0.635-0.122-0.989c0-0.364,0.043-0.702,0.129-1.015c0.087-0.312,0.221-0.582,0.403-0.811
		c0.181-0.229,0.41-0.407,0.686-0.535c0.275-0.128,0.603-0.192,0.981-0.192c0.379,0,0.706,0.064,0.981,0.192
		c0.276,0.128,0.504,0.306,0.687,0.535c0.182,0.229,0.316,0.499,0.402,0.811c0.087,0.313,0.129,0.652,0.129,1.015
		c0,0.334-0.035,0.646-0.106,0.937c-0.072,0.29-0.182,0.545-0.332,0.767c-0.151,0.222-0.339,0.404-0.565,0.546
		c-0.227,0.142-0.495,0.234-0.804,0.273c-0.04,0.128-0.101,0.248-0.185,0.362c-0.083,0.112-0.185,0.196-0.303,0.251h1.498v0.487
		h-2.494v-0.487h0.119V78.509z M203.079,77.46c0.552,0,0.962-0.186,1.233-0.557c0.27-0.371,0.405-0.881,0.405-1.531
		c0-0.325-0.033-0.615-0.099-0.871c-0.067-0.256-0.168-0.473-0.303-0.654c-0.135-0.179-0.306-0.316-0.512-0.412
		c-0.207-0.096-0.448-0.144-0.724-0.144c-0.556,0-0.968,0.186-1.236,0.557c-0.268,0.372-0.402,0.88-0.402,1.525
		c0,0.649,0.134,1.16,0.402,1.531C202.111,77.275,202.523,77.46,203.079,77.46z"/>
	<path fill="#818080" d="M207.699,77.925c-0.286,0-0.543-0.04-0.771-0.122c-0.229-0.08-0.425-0.206-0.588-0.376
		c-0.162-0.169-0.287-0.382-0.372-0.638c-0.087-0.256-0.129-0.561-0.129-0.915v-2.989h0.561v2.997c0,0.521,0.111,0.906,0.335,1.155
		c0.224,0.248,0.545,0.372,0.964,0.372c0.418,0,0.738-0.124,0.963-0.372c0.224-0.248,0.335-0.634,0.335-1.155v-2.997h0.561v2.989
		c0,0.355-0.042,0.66-0.129,0.915c-0.086,0.256-0.21,0.469-0.372,0.638c-0.163,0.17-0.359,0.296-0.587,0.376
		C208.241,77.885,207.984,77.925,207.699,77.925z"/>
	<path fill="#818080" d="M210.96,77.859h-0.561v-4.974h0.561V77.859z"/>
	<path fill="#818080" d="M213.04,77.925c-0.354,0-0.64-0.027-0.86-0.08c-0.219-0.055-0.407-0.124-0.564-0.207l0.147-0.458
		c0.142,0.069,0.314,0.129,0.516,0.177c0.202,0.049,0.433,0.074,0.694,0.074c0.177,0,0.34-0.018,0.491-0.052
		c0.149-0.035,0.279-0.088,0.388-0.159s0.193-0.164,0.255-0.277c0.061-0.112,0.092-0.248,0.092-0.405
		c0-0.158-0.032-0.289-0.096-0.392s-0.152-0.192-0.262-0.265c-0.11-0.074-0.237-0.137-0.38-0.189
		c-0.142-0.052-0.293-0.102-0.449-0.152c-0.158-0.048-0.318-0.108-0.48-0.176c-0.162-0.069-0.312-0.157-0.449-0.263
		c-0.138-0.105-0.251-0.237-0.336-0.395c-0.087-0.157-0.129-0.352-0.129-0.582c0-0.187,0.03-0.361,0.092-0.521
		c0.062-0.16,0.159-0.297,0.292-0.413c0.133-0.115,0.302-0.206,0.509-0.272c0.206-0.067,0.455-0.1,0.745-0.1
		c0.245,0,0.47,0.024,0.671,0.07c0.202,0.046,0.383,0.112,0.546,0.196l-0.147,0.457c-0.143-0.068-0.308-0.124-0.495-0.166
		c-0.187-0.041-0.378-0.062-0.575-0.062c-0.389,0-0.669,0.074-0.841,0.225c-0.172,0.149-0.259,0.343-0.259,0.579
		c0,0.142,0.03,0.263,0.089,0.362c0.059,0.098,0.139,0.182,0.24,0.254c0.101,0.072,0.219,0.135,0.354,0.189
		c0.136,0.055,0.279,0.106,0.432,0.155c0.177,0.06,0.354,0.125,0.528,0.196s0.332,0.163,0.472,0.273s0.254,0.246,0.339,0.406
		c0.087,0.16,0.13,0.358,0.13,0.594s-0.042,0.44-0.126,0.612c-0.083,0.172-0.201,0.314-0.35,0.428
		c-0.151,0.113-0.33,0.198-0.539,0.255C213.513,77.897,213.287,77.925,213.04,77.925z"/>
	<path fill="#818080" d="M218.014,76.494h-2.118l-0.494,1.365h-0.576l1.853-4.974h0.561l1.853,4.974h-0.575L218.014,76.494z
		 M216.089,75.992h1.741l-0.546-1.476c-0.054-0.167-0.107-0.333-0.159-0.498s-0.104-0.331-0.159-0.498h-0.014
		c-0.055,0.167-0.107,0.333-0.159,0.498s-0.104,0.331-0.159,0.498L216.089,75.992z"/>
	<path fill="#818080" d="M220.715,77.925c-0.354,0-0.64-0.027-0.86-0.08c-0.219-0.055-0.407-0.124-0.564-0.207l0.147-0.458
		c0.142,0.069,0.314,0.129,0.516,0.177c0.202,0.049,0.433,0.074,0.694,0.074c0.177,0,0.34-0.018,0.491-0.052
		c0.149-0.035,0.279-0.088,0.388-0.159s0.193-0.164,0.255-0.277c0.061-0.112,0.092-0.248,0.092-0.405
		c0-0.158-0.032-0.289-0.096-0.392s-0.152-0.192-0.262-0.265c-0.11-0.074-0.237-0.137-0.38-0.189
		c-0.142-0.052-0.293-0.102-0.449-0.152c-0.158-0.048-0.318-0.108-0.48-0.176c-0.162-0.069-0.312-0.157-0.449-0.263
		c-0.138-0.105-0.251-0.237-0.336-0.395c-0.087-0.157-0.129-0.352-0.129-0.582c0-0.187,0.03-0.361,0.092-0.521
		c0.062-0.16,0.159-0.297,0.292-0.413c0.133-0.115,0.302-0.206,0.509-0.272c0.206-0.067,0.455-0.1,0.745-0.1
		c0.245,0,0.47,0.024,0.671,0.07c0.202,0.046,0.383,0.112,0.546,0.196L222,73.542c-0.143-0.068-0.308-0.124-0.495-0.166
		c-0.187-0.041-0.378-0.062-0.575-0.062c-0.389,0-0.669,0.074-0.841,0.225c-0.172,0.149-0.259,0.343-0.259,0.579
		c0,0.142,0.03,0.263,0.089,0.362c0.059,0.098,0.139,0.182,0.24,0.254c0.101,0.072,0.219,0.135,0.354,0.189
		c0.136,0.055,0.279,0.106,0.432,0.155c0.177,0.06,0.354,0.125,0.528,0.196s0.332,0.163,0.472,0.273s0.254,0.246,0.339,0.406
		c0.087,0.16,0.13,0.358,0.13,0.594c0,0.236-0.042,0.44-0.126,0.612c-0.084,0.172-0.201,0.314-0.351,0.428
		c-0.151,0.113-0.33,0.198-0.539,0.255C221.188,77.897,220.962,77.925,220.715,77.925z"/>
</g>
<text transform="matrix(1 0 0 1 43.2455 32.0464)" fill="#FFFFFF" font-family="'Montserrat-Medium'" font-size="30.2364">AVALIA</text>
<text transform="matrix(1 0 0 1 155.5326 32.0464)" fill="#C64938" font-family="'Lato-Medium'" font-size="29.6851">ME</text>
<text transform="matrix(1 0 0 1 41.4902 40.7578)" fill="#FFFFFF" font-family="'Montserrat-Light'" font-size="8.3489">solução fácil para criação de pesquisas</text>
</svg>
