<?xml version="1.0" encoding="utf-8"?>
<!-- Generator: Adobe Illustrator 17.0.0, SVG Export Plug-In . SVG Version: 6.00 Build 0)  -->
<!DOCTYPE svg PUBLIC "-//W3C//DTD SVG 1.1//EN" "http://www.w3.org/Graphics/SVG/1.1/DTD/svg11.dtd">
<svg version="1.1" id="Camada_1" xmlns="http://www.w3.org/2000/svg" xmlns:xlink="http://www.w3.org/1999/xlink" x="0px" y="0px"
	 width="200px" height="50px" viewBox="0 0 200 50" enable-background="new 0 0 200 50" xml:space="preserve">
<path fill="#0090E9" d="M15.084,41.917c-1.052,0.354-2.08,0.008-3.077-0.207C5.858,40.383,1.223,35.457,0.189,29.232
	c-1.324-7.967,4.458-16.004,12.412-17.244c0.567-0.088,1.146-0.101,1.716-0.178c0.584-0.079,0.765,0.124,0.761,0.732
	c-0.026,4.44-0.015,8.881-0.013,13.321c0,0.301,0.018,0.601,0.028,0.902c0.25,0.297,0.212,0.659,0.212,1.005
	c0.006,4.381,0.006,8.763,0,13.144C15.305,41.262,15.335,41.623,15.084,41.917z"/>
<path fill="#F5D241" d="M15.084,41.917c0.003-5.051,0.006-10.101,0.01-15.152c1.202-1.211,2.404-2.422,3.607-3.633
	c0.109-0.348,0.366-0.584,0.606-0.84c1.502-1.603,3.217-2.986,4.732-4.576c0.361-0.379,0.744-0.735,1.066-1.153
	c0.15-0.195,0.288-0.499,0.645-0.348c2.874,2.996,4.353,6.576,4.349,10.721c-0.006,7.478-5.791,13.946-13.217,14.867
	C16.28,41.878,15.686,41.927,15.084,41.917z"/>
<path fill="#D94432" d="M25.748,16.215c-0.198,0.187-0.405,0.365-0.593,0.561c-2.088,2.183-4.285,4.256-6.456,6.356
	c-0.007-4.813-0.01-9.627-0.03-14.44c-0.002-0.403,0.125-0.515,0.515-0.497c3.752,0.179,7.018,1.493,9.746,4.106
	c0.293,0.28,0.265,0.44-0.006,0.709C27.854,14.067,26.805,15.145,25.748,16.215z"/>
<g>
	<path fill="#4D4D4D" d="M34.905,32.682c1.44,0.887,3.544,1.625,5.758,1.625c3.286,0,5.205-1.735,5.205-4.245
		c0-2.326-1.329-3.654-4.688-4.947c-4.06-1.44-6.571-3.544-6.571-7.051c0-3.876,3.212-6.755,8.047-6.755
		c2.547,0,4.392,0.591,5.5,1.218l-0.886,2.621c-0.812-0.443-2.473-1.181-4.725-1.181c-3.396,0-4.688,2.03-4.688,3.728
		c0,2.325,1.513,3.47,4.947,4.799c4.208,1.625,6.349,3.654,6.349,7.309c0,3.839-2.842,7.161-8.711,7.161
		c-2.399,0-5.02-0.702-6.349-1.588L34.905,32.682z"/>
	<path fill="#4D4D4D" d="M56.756,11.716v14.729c0,5.574,2.473,7.936,5.795,7.936c3.691,0,6.054-2.436,6.054-7.936V11.716h3.248
		v14.507c0,7.641-4.023,10.779-9.413,10.779c-5.094,0-8.933-2.917-8.933-10.631V11.716H56.756z"/>
	<path fill="#4D4D4D" d="M77.425,12.011c1.551-0.259,3.581-0.48,6.165-0.48c3.174,0,5.5,0.738,6.976,2.067
		c1.366,1.181,2.178,2.99,2.178,5.205c0,2.252-0.664,4.024-1.919,5.316c-1.698,1.808-4.467,2.731-7.605,2.731
		c-0.96,0-1.845-0.037-2.584-0.222v9.967h-3.212V12.011z M80.636,24.008c0.701,0.185,1.587,0.258,2.658,0.258
		c3.876,0,6.239-1.882,6.239-5.315c0-3.286-2.326-4.873-5.869-4.873c-1.403,0-2.473,0.111-3.027,0.259V24.008z"/>
	<path fill="#4D4D4D" d="M109.944,24.931h-9.671v8.97h10.779v2.695h-13.99v-24.88h13.436v2.695h-10.225v7.862h9.671V24.931z"/>
	<path fill="#4D4D4D" d="M115.221,12.048c1.624-0.332,3.949-0.517,6.164-0.517c3.433,0,5.648,0.628,7.198,2.03
		c1.255,1.107,1.957,2.805,1.957,4.725c0,3.286-2.068,5.463-4.688,6.349v0.111c1.919,0.664,3.063,2.436,3.654,5.02
		c0.812,3.47,1.402,5.869,1.919,6.829h-3.322c-0.406-0.701-0.96-2.843-1.661-5.943c-0.738-3.433-2.067-4.725-4.983-4.836h-3.026
		v10.779h-3.211V12.048z M118.432,23.38h3.285c3.433,0,5.611-1.882,5.611-4.725c0-3.211-2.325-4.614-5.721-4.651
		c-1.55,0-2.658,0.148-3.174,0.296V23.38z"/>
</g>
<g>
	<path fill="#D94432" d="M144.366,17.345c-2.463,0-4.384,0.771-5.766,2.313c-1.382,1.541-2.072,3.748-2.072,6.617
		c0,2.826,0.684,5.017,2.056,6.568c1.37,1.553,3.287,2.329,5.749,2.329c1.756,0,3.341-0.343,4.754-1.028l0.61,2.056
		c-0.771,0.385-1.59,0.681-2.458,0.884c-0.867,0.203-1.847,0.305-2.939,0.305c-1.757,0-3.272-0.268-4.546-0.803
		c-1.275-0.535-2.329-1.285-3.164-2.248c-0.835-0.964-1.456-2.131-1.863-3.501c-0.407-1.371-0.61-2.892-0.61-4.561
		c0-1.627,0.224-3.126,0.674-4.498c0.45-1.37,1.108-2.543,1.975-3.517c0.867-0.974,1.933-1.735,3.196-2.281
		c1.263-0.546,2.72-0.819,4.368-0.819c1.114,0,2.077,0.091,2.892,0.273c0.814,0.182,1.574,0.434,2.28,0.755l-0.61,2.056
		C147.589,17.646,146.079,17.345,144.366,17.345z"/>
	<path fill="#D94432" d="M166.754,21.858c0,1.567-0.454,2.92-1.365,4.058c-0.911,1.138-2.147,1.9-3.71,2.287l5.236,8.897h-2.665
		l-5.076-8.641h-0.032h-4.754v8.641h-2.41V15.418h7.677c1.113,0,2.114,0.167,3.003,0.5c0.888,0.332,1.633,0.789,2.232,1.369
		c0.599,0.58,1.06,1.261,1.382,2.045C166.594,20.115,166.754,20.957,166.754,21.858z M164.313,21.875
		c0-1.286-0.396-2.297-1.189-3.036c-0.792-0.739-1.949-1.108-3.469-1.108h-5.268v8.48h5.075c1.52,0,2.709-0.385,3.566-1.156
		C163.885,24.284,164.313,23.223,164.313,21.875z"/>
	<path fill="#D94432" d="M177.901,33.567l-4.754-10.44c-0.3-0.642-0.589-1.29-0.867-1.943c-0.278-0.653-0.557-1.408-0.835-2.265
		h-0.065c0.129,0.985,0.204,1.927,0.225,2.827c0.021,0.899,0.032,1.617,0.032,2.152v13.202h-2.41V15.45h2.859l5.236,11.596
		c0.15,0.344,0.321,0.723,0.514,1.141c0.193,0.417,0.375,0.83,0.547,1.237c0.171,0.407,0.326,0.792,0.465,1.156
		c0.139,0.365,0.241,0.664,0.305,0.9h0.097c0.064-0.236,0.165-0.535,0.305-0.9c0.139-0.364,0.295-0.749,0.466-1.156
		c0.171-0.406,0.347-0.819,0.529-1.237c0.182-0.417,0.359-0.797,0.53-1.141l5.237-11.596h2.858v21.65h-2.409V23.898
		c0-0.535,0.01-1.253,0.031-2.152c0.021-0.9,0.097-1.842,0.225-2.827h-0.065c-0.278,0.857-0.557,1.612-0.835,2.265
		c-0.279,0.653-0.568,1.301-0.867,1.943l-4.754,10.44H177.901z"/>
</g>
<g>
	<path fill="#808080" d="M29.568,45.925c-0.354,0-0.641-0.027-0.859-0.08c-0.219-0.055-0.407-0.124-0.565-0.207l0.148-0.458
		c0.142,0.069,0.314,0.129,0.516,0.177c0.202,0.049,0.433,0.074,0.694,0.074c0.177,0,0.34-0.018,0.491-0.052
		c0.15-0.035,0.279-0.088,0.387-0.159s0.193-0.164,0.255-0.277c0.061-0.112,0.092-0.248,0.092-0.405
		c0-0.158-0.032-0.289-0.096-0.392s-0.151-0.192-0.262-0.265c-0.111-0.074-0.238-0.137-0.38-0.189
		c-0.143-0.052-0.293-0.102-0.451-0.152c-0.157-0.048-0.317-0.108-0.479-0.176c-0.162-0.069-0.313-0.157-0.451-0.263
		c-0.138-0.105-0.249-0.237-0.336-0.395c-0.086-0.157-0.129-0.352-0.129-0.582c0-0.187,0.031-0.361,0.092-0.521
		c0.062-0.16,0.159-0.297,0.292-0.413c0.133-0.115,0.303-0.206,0.509-0.272c0.207-0.067,0.455-0.1,0.745-0.1
		c0.246,0,0.47,0.024,0.671,0.07c0.202,0.046,0.384,0.112,0.546,0.196l-0.147,0.457c-0.143-0.068-0.308-0.124-0.495-0.166
		c-0.187-0.041-0.379-0.062-0.575-0.062c-0.389,0-0.669,0.074-0.841,0.225c-0.173,0.149-0.258,0.343-0.258,0.579
		c0,0.142,0.029,0.263,0.088,0.362c0.059,0.098,0.139,0.182,0.24,0.254c0.101,0.072,0.219,0.135,0.354,0.189
		c0.135,0.055,0.279,0.106,0.431,0.155c0.177,0.06,0.353,0.125,0.528,0.196c0.175,0.071,0.332,0.163,0.472,0.273
		c0.14,0.11,0.254,0.246,0.34,0.406s0.129,0.358,0.129,0.594c0,0.236-0.042,0.44-0.125,0.612c-0.084,0.172-0.201,0.314-0.351,0.428
		s-0.33,0.198-0.539,0.255C30.042,45.897,29.815,45.925,29.568,45.925z"/>
	<path fill="#808080" d="M33.73,45.925c-0.379,0-0.706-0.064-0.981-0.192c-0.276-0.128-0.505-0.306-0.687-0.535
		c-0.182-0.229-0.316-0.499-0.402-0.811c-0.086-0.312-0.129-0.65-0.129-1.014s0.043-0.702,0.129-1.015
		c0.086-0.312,0.22-0.582,0.402-0.811c0.182-0.229,0.411-0.407,0.687-0.535c0.275-0.128,0.603-0.192,0.981-0.192
		c0.379,0,0.706,0.064,0.981,0.192c0.275,0.128,0.504,0.306,0.686,0.535s0.316,0.499,0.403,0.811
		c0.086,0.313,0.129,0.652,0.129,1.015s-0.043,0.702-0.129,1.014s-0.221,0.582-0.403,0.811s-0.411,0.407-0.686,0.535
		C34.436,45.861,34.109,45.925,33.73,45.925z M33.73,45.46c0.275,0,0.515-0.047,0.72-0.143c0.204-0.096,0.375-0.235,0.513-0.418
		c0.138-0.181,0.24-0.4,0.306-0.657c0.066-0.256,0.099-0.545,0.099-0.87s-0.033-0.615-0.099-0.871
		c-0.066-0.256-0.169-0.474-0.306-0.657c-0.138-0.182-0.309-0.321-0.513-0.418c-0.204-0.096-0.444-0.143-0.72-0.143
		c-0.276,0-0.516,0.047-0.723,0.143c-0.207,0.097-0.379,0.235-0.516,0.418c-0.138,0.182-0.24,0.401-0.306,0.657
		c-0.066,0.256-0.1,0.546-0.1,0.871s0.034,0.614,0.1,0.87c0.066,0.257,0.168,0.475,0.306,0.657c0.138,0.182,0.31,0.322,0.516,0.418
		C33.214,45.413,33.455,45.46,33.73,45.46z"/>
	<path fill="#808080" d="M36.505,40.885h0.561v4.458h2.376v0.516h-2.937V40.885z"/>
	<path fill="#808080" d="M41.745,45.925c-0.286,0-0.542-0.04-0.771-0.122c-0.229-0.08-0.424-0.206-0.587-0.376
		c-0.162-0.169-0.287-0.382-0.373-0.638c-0.086-0.256-0.129-0.561-0.129-0.915v-2.989h0.561v2.997c0,0.521,0.112,0.906,0.336,1.155
		c0.224,0.248,0.545,0.372,0.963,0.372c0.418,0,0.739-0.124,0.963-0.372c0.224-0.248,0.336-0.634,0.336-1.155v-2.997h0.561v2.989
		c0,0.355-0.043,0.66-0.129,0.915c-0.086,0.256-0.21,0.469-0.373,0.638c-0.162,0.17-0.358,0.296-0.587,0.376
		C42.287,45.885,42.03,45.925,41.745,45.925z"/>
	<path fill="#808080" d="M46.519,41.321c-0.566,0-1.008,0.176-1.325,0.531c-0.318,0.355-0.476,0.861-0.476,1.521
		c0,0.649,0.158,1.153,0.473,1.509c0.314,0.357,0.755,0.535,1.321,0.535c0.404,0,0.768-0.079,1.092-0.237l0.14,0.473
		c-0.177,0.088-0.365,0.156-0.564,0.202c-0.199,0.047-0.424,0.07-0.675,0.07c-0.404,0-0.752-0.061-1.044-0.185
		c-0.293-0.123-0.535-0.295-0.727-0.516c-0.192-0.221-0.335-0.489-0.428-0.804c-0.094-0.314-0.14-0.664-0.14-1.047
		c0-0.374,0.052-0.719,0.155-1.033c0.104-0.315,0.255-0.585,0.454-0.808c0.199-0.224,0.444-0.399,0.734-0.525
		c0.29-0.125,0.625-0.188,1.004-0.188c0.256,0,0.477,0.021,0.664,0.063c0.187,0.041,0.361,0.099,0.524,0.173l-0.14,0.472
		C47.259,41.39,46.913,41.321,46.519,41.321z M46.268,47.069h-0.591l0.591-0.923h0.347L46.268,47.069z"/>
	<path fill="#808080" d="M51.013,44.494h-2.118l-0.494,1.365h-0.576l1.852-4.974h0.561l1.853,4.974h-0.576L51.013,44.494z
		 M51.057,39.564c-0.005,0.236-0.063,0.419-0.174,0.546s-0.262,0.192-0.454,0.192c-0.113,0-0.21-0.019-0.292-0.056
		c-0.081-0.037-0.156-0.077-0.225-0.122c-0.069-0.044-0.137-0.085-0.203-0.122c-0.066-0.037-0.137-0.056-0.21-0.056
		c-0.098,0-0.168,0.033-0.207,0.1c-0.04,0.066-0.059,0.143-0.059,0.232h-0.383c0.005-0.231,0.06-0.41,0.166-0.538
		c0.106-0.128,0.262-0.192,0.469-0.192c0.104,0,0.196,0.019,0.277,0.055c0.081,0.037,0.156,0.076,0.225,0.119
		c0.069,0.042,0.138,0.081,0.207,0.118c0.069,0.037,0.14,0.056,0.214,0.056c0.098,0,0.164-0.031,0.199-0.092
		c0.035-0.062,0.052-0.141,0.052-0.24H51.057z M49.087,43.992h1.742l-0.546-1.476c-0.054-0.167-0.107-0.333-0.158-0.498
		c-0.052-0.165-0.105-0.331-0.159-0.498H49.95c-0.054,0.167-0.107,0.333-0.159,0.498c-0.052,0.165-0.105,0.331-0.158,0.498
		L49.087,43.992z"/>
	<path fill="#808080" d="M54.275,45.925c-0.379,0-0.706-0.064-0.981-0.192c-0.276-0.128-0.505-0.306-0.687-0.535
		s-0.316-0.499-0.402-0.811c-0.086-0.312-0.129-0.65-0.129-1.014s0.043-0.702,0.129-1.015c0.086-0.312,0.22-0.582,0.402-0.811
		s0.411-0.407,0.687-0.535c0.275-0.128,0.603-0.192,0.981-0.192c0.379,0,0.706,0.064,0.981,0.192
		c0.275,0.128,0.504,0.306,0.686,0.535s0.316,0.499,0.403,0.811c0.086,0.313,0.129,0.652,0.129,1.015s-0.043,0.702-0.129,1.014
		c-0.086,0.312-0.221,0.582-0.403,0.811s-0.411,0.407-0.686,0.535C54.98,45.861,54.654,45.925,54.275,45.925z M54.275,45.46
		c0.275,0,0.515-0.047,0.72-0.143c0.204-0.096,0.375-0.235,0.513-0.418c0.138-0.181,0.24-0.4,0.306-0.657
		c0.066-0.256,0.099-0.545,0.099-0.87s-0.033-0.615-0.099-0.871c-0.066-0.256-0.169-0.474-0.306-0.657
		c-0.138-0.182-0.309-0.321-0.513-0.418c-0.204-0.096-0.444-0.143-0.72-0.143c-0.276,0-0.516,0.047-0.723,0.143
		c-0.207,0.097-0.379,0.235-0.516,0.418c-0.138,0.182-0.24,0.401-0.306,0.657c-0.066,0.256-0.1,0.546-0.1,0.871
		s0.034,0.614,0.1,0.87c0.066,0.257,0.168,0.475,0.306,0.657c0.138,0.182,0.31,0.322,0.516,0.418
		C53.758,45.413,53.999,45.46,54.275,45.46z"/>
	<path fill="#808080" d="M58.584,40.885h2.944v0.516h-2.383v1.705h2.236v0.516h-2.236v2.236h-0.561V40.885z"/>
	<path fill="#808080" d="M64.444,44.494h-2.118l-0.494,1.365h-0.576l1.852-4.974h0.561l1.853,4.974h-0.576L64.444,44.494z
		 M62.517,43.992h1.742l-0.546-1.476c-0.054-0.167-0.107-0.333-0.158-0.498c-0.052-0.165-0.105-0.331-0.159-0.498h-0.015
		c-0.054,0.167-0.107,0.333-0.159,0.498c-0.052,0.165-0.105,0.331-0.158,0.498L62.517,43.992z M63.772,39.247l0.303,0.413
		l-1.203,0.738l-0.17-0.236L63.772,39.247z"/>
	<path fill="#808080" d="M67.86,41.321c-0.566,0-1.008,0.176-1.325,0.531c-0.318,0.355-0.476,0.861-0.476,1.521
		c0,0.649,0.158,1.153,0.473,1.509c0.314,0.357,0.755,0.535,1.321,0.535c0.404,0,0.768-0.079,1.092-0.237l0.14,0.473
		c-0.177,0.088-0.365,0.156-0.564,0.202c-0.199,0.047-0.424,0.07-0.675,0.07c-0.404,0-0.752-0.061-1.044-0.185
		c-0.293-0.123-0.535-0.295-0.727-0.516c-0.192-0.221-0.335-0.489-0.428-0.804c-0.094-0.314-0.14-0.664-0.14-1.047
		c0-0.374,0.052-0.719,0.155-1.033c0.104-0.315,0.255-0.585,0.454-0.808c0.199-0.224,0.444-0.399,0.734-0.525
		c0.29-0.125,0.625-0.188,1.004-0.188c0.256,0,0.477,0.021,0.664,0.063c0.187,0.041,0.361,0.099,0.524,0.173l-0.14,0.472
		C68.601,41.39,68.254,41.321,67.86,41.321z"/>
	<path fill="#808080" d="M70.185,45.859h-0.561v-4.974h0.561V45.859z"/>
	<path fill="#808080" d="M71.04,40.885h0.561v4.458h2.376v0.516H71.04V40.885z"/>
	<path fill="#808080" d="M75.97,40.885h3.004v0.509h-2.443v1.638h2.295v0.516h-2.295v1.801h2.487v0.509H75.97V40.885z"/>
	<path fill="#808080" d="M81.157,40.885h3.004v0.509h-2.443v1.638h2.295v0.516h-2.295v1.801h2.487v0.509h-3.048V40.885z"/>
	<path fill="#808080" d="M84.81,40.885h2.944v0.516h-2.383v1.705h2.236v0.516h-2.236v2.236H84.81V40.885z"/>
	<path fill="#808080" d="M88.876,45.859h-0.561v-4.974h0.561V45.859z"/>
	<path fill="#808080" d="M91.821,41.321c-0.566,0-1.008,0.176-1.325,0.531c-0.318,0.355-0.476,0.861-0.476,1.521
		c0,0.649,0.158,1.153,0.473,1.509c0.314,0.357,0.755,0.535,1.321,0.535c0.404,0,0.768-0.079,1.092-0.237l0.14,0.473
		c-0.177,0.088-0.365,0.156-0.564,0.202c-0.199,0.047-0.424,0.07-0.675,0.07c-0.404,0-0.752-0.061-1.044-0.185
		c-0.293-0.123-0.535-0.295-0.727-0.516c-0.192-0.221-0.335-0.489-0.428-0.804c-0.094-0.314-0.14-0.664-0.14-1.047
		c0-0.374,0.052-0.719,0.155-1.033c0.104-0.315,0.255-0.585,0.454-0.808c0.199-0.224,0.444-0.399,0.734-0.525
		c0.29-0.125,0.625-0.188,1.004-0.188c0.256,0,0.477,0.021,0.664,0.063c0.187,0.041,0.361,0.099,0.524,0.173l-0.14,0.472
		C92.561,41.39,92.214,41.321,91.821,41.321z"/>
	<path fill="#808080" d="M96.315,44.494h-2.118l-0.494,1.365h-0.576l1.852-4.974h0.561l1.853,4.974h-0.576L96.315,44.494z
		 M94.389,43.992h1.742l-0.546-1.476c-0.054-0.167-0.107-0.333-0.158-0.498c-0.052-0.165-0.105-0.331-0.159-0.498h-0.015
		c-0.054,0.167-0.107,0.333-0.159,0.498c-0.052,0.165-0.105,0.331-0.158,0.498L94.389,43.992z"/>
	<path fill="#808080" d="M97.51,45.468l2.634-4.074h-2.45v-0.509h3.143v0.399l-2.627,4.066h2.672v0.509H97.51V45.468z"/>
	<path fill="#808080" d="M106.225,42.42c0,0.227-0.039,0.434-0.118,0.624c-0.079,0.19-0.191,0.355-0.336,0.495
		s-0.321,0.249-0.528,0.328c-0.206,0.079-0.438,0.119-0.694,0.119h-0.996v1.874h-0.561v-4.974h1.601c0.256,0,0.487,0.04,0.691,0.119
		c0.204,0.078,0.374,0.187,0.512,0.325c0.138,0.137,0.243,0.3,0.318,0.487C106.189,42.002,106.225,42.203,106.225,42.42z
		 M105.664,42.42c0-0.314-0.091-0.563-0.273-0.745c-0.181-0.181-0.447-0.273-0.797-0.273h-1.04v2.067h0.996
		c0.349,0,0.623-0.094,0.82-0.28C105.566,43,105.664,42.745,105.664,42.42z"/>
	<path fill="#808080" d="M109.023,44.494h-2.118l-0.494,1.365h-0.576l1.853-4.974h0.561l1.853,4.974h-0.575L109.023,44.494z
		 M107.097,43.992h1.741l-0.546-1.476c-0.054-0.167-0.107-0.333-0.159-0.498s-0.104-0.331-0.159-0.498h-0.014
		c-0.055,0.167-0.107,0.333-0.159,0.498s-0.104,0.331-0.159,0.498L107.097,43.992z"/>
	<path fill="#808080" d="M113.893,42.357c0,0.361-0.105,0.671-0.313,0.933c-0.209,0.261-0.494,0.436-0.853,0.525l1.203,2.044h-0.613
		l-1.166-1.986h-0.007h-1.092v1.986h-0.554v-4.981h1.764c0.256,0,0.486,0.038,0.69,0.114c0.204,0.077,0.375,0.181,0.513,0.314
		c0.137,0.134,0.243,0.291,0.316,0.47C113.855,41.957,113.893,42.151,113.893,42.357z M113.332,42.361
		c0-0.295-0.092-0.528-0.273-0.697c-0.182-0.17-0.447-0.255-0.797-0.255h-1.21v1.947h1.166c0.349,0,0.622-0.089,0.819-0.265
		C113.233,42.915,113.332,42.672,113.332,42.361z"/>
	<path fill="#808080" d="M117.206,44.494h-2.118l-0.494,1.365h-0.576l1.853-4.974h0.561l1.853,4.974h-0.575L117.206,44.494z
		 M115.28,43.992h1.741l-0.546-1.476c-0.054-0.167-0.107-0.333-0.159-0.498s-0.104-0.331-0.159-0.498h-0.014
		c-0.055,0.167-0.107,0.333-0.159,0.498s-0.104,0.331-0.159,0.498L115.28,43.992z"/>
	<path fill="#808080" d="M122.305,41.321c-0.566,0-1.007,0.176-1.325,0.531c-0.318,0.355-0.476,0.861-0.476,1.521
		c0,0.649,0.158,1.153,0.472,1.509c0.315,0.357,0.756,0.535,1.322,0.535c0.403,0,0.767-0.079,1.092-0.237l0.14,0.473
		c-0.177,0.088-0.365,0.156-0.565,0.202c-0.199,0.047-0.424,0.07-0.675,0.07c-0.403,0-0.752-0.061-1.043-0.185
		c-0.293-0.123-0.535-0.295-0.728-0.516c-0.192-0.221-0.334-0.489-0.428-0.804c-0.093-0.314-0.14-0.664-0.14-1.047
		c0-0.374,0.052-0.719,0.156-1.033c0.103-0.315,0.255-0.585,0.454-0.808c0.199-0.224,0.443-0.399,0.734-0.525
		c0.291-0.125,0.625-0.188,1.004-0.188c0.256,0,0.476,0.021,0.664,0.063c0.187,0.041,0.362,0.099,0.524,0.173l-0.14,0.472
		C123.045,41.39,122.699,41.321,122.305,41.321z"/>
	<path fill="#808080" d="M127.449,42.357c0,0.361-0.105,0.671-0.313,0.933c-0.209,0.261-0.494,0.436-0.853,0.525l1.203,2.044h-0.613
		l-1.166-1.986h-0.007h-1.092v1.986h-0.554v-4.981h1.764c0.256,0,0.486,0.038,0.69,0.114c0.204,0.077,0.375,0.181,0.513,0.314
		c0.137,0.134,0.243,0.291,0.316,0.47C127.412,41.957,127.449,42.151,127.449,42.357z M126.888,42.361
		c0-0.295-0.092-0.528-0.273-0.697c-0.182-0.17-0.447-0.255-0.797-0.255h-1.21v1.947h1.166c0.349,0,0.622-0.089,0.819-0.265
		C126.789,42.915,126.888,42.672,126.888,42.361z"/>
	<path fill="#808080" d="M128.591,45.859h-0.561v-4.974h0.561V45.859z"/>
	<path fill="#808080" d="M132.193,44.494h-2.118l-0.494,1.365h-0.576l1.853-4.974h0.561l1.853,4.974h-0.575L132.193,44.494z
		 M130.267,43.992h1.741l-0.546-1.476c-0.054-0.167-0.107-0.333-0.159-0.498s-0.104-0.331-0.159-0.498h-0.014
		c-0.055,0.167-0.107,0.333-0.159,0.498s-0.104,0.331-0.159,0.498L130.267,43.992z"/>
	<path fill="#808080" d="M135.609,41.321c-0.566,0-1.007,0.176-1.325,0.531c-0.318,0.355-0.476,0.861-0.476,1.521
		c0,0.649,0.158,1.153,0.472,1.509c0.315,0.357,0.756,0.535,1.322,0.535c0.403,0,0.767-0.079,1.092-0.237l0.14,0.473
		c-0.177,0.088-0.365,0.156-0.565,0.202c-0.199,0.047-0.424,0.07-0.675,0.07c-0.403,0-0.752-0.061-1.043-0.185
		c-0.293-0.123-0.535-0.295-0.728-0.516c-0.192-0.221-0.334-0.489-0.428-0.804c-0.093-0.314-0.14-0.664-0.14-1.047
		c0-0.374,0.052-0.719,0.156-1.033c0.103-0.315,0.255-0.585,0.454-0.808s0.443-0.399,0.734-0.525
		c0.291-0.125,0.625-0.188,1.004-0.188c0.256,0,0.476,0.021,0.664,0.063c0.187,0.041,0.362,0.099,0.524,0.173l-0.14,0.472
		C136.35,41.39,136.003,41.321,135.609,41.321z M135.358,47.069h-0.59l0.59-0.923h0.347L135.358,47.069z"/>
	<path fill="#808080" d="M140.104,44.494h-2.118l-0.494,1.365h-0.576l1.853-4.974h0.561l1.853,4.974h-0.575L140.104,44.494z
		 M140.149,39.564c-0.005,0.236-0.063,0.419-0.173,0.546c-0.111,0.128-0.263,0.192-0.455,0.192c-0.112,0-0.21-0.019-0.291-0.056
		c-0.081-0.037-0.157-0.077-0.226-0.122c-0.069-0.044-0.136-0.085-0.203-0.122c-0.066-0.037-0.136-0.056-0.21-0.056
		c-0.098,0-0.167,0.033-0.206,0.1c-0.039,0.066-0.059,0.143-0.059,0.232h-0.385c0.005-0.231,0.061-0.41,0.167-0.538
		c0.105-0.128,0.262-0.192,0.468-0.192c0.103,0,0.196,0.019,0.277,0.055c0.08,0.037,0.156,0.076,0.225,0.119
		s0.137,0.081,0.206,0.118c0.069,0.037,0.14,0.056,0.214,0.056c0.098,0,0.165-0.031,0.199-0.092c0.034-0.062,0.052-0.141,0.052-0.24
		H140.149z M138.178,43.992h1.741l-0.546-1.476c-0.054-0.167-0.107-0.333-0.159-0.498s-0.104-0.331-0.159-0.498h-0.014
		c-0.055,0.167-0.107,0.333-0.159,0.498s-0.104,0.331-0.159,0.498L138.178,43.992z"/>
	<path fill="#808080" d="M143.365,45.925c-0.378,0-0.705-0.064-0.981-0.192c-0.275-0.128-0.504-0.306-0.686-0.535
		c-0.182-0.229-0.316-0.499-0.402-0.811c-0.087-0.312-0.13-0.65-0.13-1.014s0.043-0.702,0.13-1.015
		c0.086-0.312,0.22-0.582,0.402-0.811c0.181-0.229,0.41-0.407,0.686-0.535c0.276-0.128,0.603-0.192,0.981-0.192
		c0.379,0,0.706,0.064,0.981,0.192c0.276,0.128,0.505,0.306,0.687,0.535c0.182,0.229,0.316,0.499,0.402,0.811
		c0.087,0.313,0.13,0.652,0.13,1.015s-0.043,0.702-0.13,1.014c-0.086,0.312-0.22,0.582-0.402,0.811
		c-0.181,0.229-0.41,0.407-0.687,0.535C144.071,45.861,143.744,45.925,143.365,45.925z M143.365,45.46
		c0.276,0,0.515-0.047,0.72-0.143c0.204-0.096,0.375-0.235,0.513-0.418c0.137-0.181,0.24-0.4,0.306-0.657
		c0.066-0.256,0.1-0.545,0.1-0.87s-0.034-0.615-0.1-0.871c-0.066-0.256-0.169-0.474-0.306-0.657
		c-0.138-0.182-0.309-0.321-0.513-0.418c-0.204-0.096-0.443-0.143-0.72-0.143c-0.275,0-0.516,0.047-0.723,0.143
		c-0.206,0.097-0.379,0.235-0.516,0.418c-0.138,0.182-0.24,0.401-0.306,0.657c-0.067,0.256-0.1,0.546-0.1,0.871
		s0.033,0.614,0.1,0.87c0.066,0.257,0.168,0.475,0.306,0.657c0.137,0.182,0.31,0.322,0.516,0.418
		C142.848,45.413,143.09,45.46,143.365,45.46z"/>
	<path fill="#808080" d="M151.519,43.365c0,0.816-0.206,1.436-0.62,1.859c-0.413,0.424-1.026,0.635-1.837,0.635h-1.388v-4.974h1.388
		c0.811,0,1.424,0.209,1.837,0.628C151.313,41.93,151.519,42.548,151.519,43.365z M150.959,43.365c0-0.349-0.041-0.648-0.125-0.897
		c-0.083-0.248-0.206-0.452-0.366-0.609c-0.16-0.157-0.358-0.273-0.594-0.346c-0.236-0.074-0.506-0.111-0.811-0.111h-0.827v3.941
		h0.827c0.305,0,0.575-0.037,0.811-0.11c0.236-0.074,0.434-0.191,0.594-0.351s0.282-0.366,0.366-0.616
		C150.917,44.014,150.959,43.714,150.959,43.365z"/>
	<path fill="#808080" d="M152.096,40.885h3.003v0.509h-2.442v1.638h2.295v0.516h-2.295v1.801h2.487v0.509h-3.047V40.885z"/>
	<path fill="#808080" d="M160.515,42.42c0,0.227-0.039,0.434-0.118,0.624c-0.079,0.19-0.191,0.355-0.336,0.495
		s-0.321,0.249-0.528,0.328c-0.206,0.079-0.438,0.119-0.694,0.119h-0.996v1.874h-0.561v-4.974h1.601c0.256,0,0.487,0.04,0.691,0.119
		c0.204,0.078,0.374,0.187,0.512,0.325c0.138,0.137,0.243,0.3,0.318,0.487C160.479,42.002,160.515,42.203,160.515,42.42z
		 M159.954,42.42c0-0.314-0.091-0.563-0.273-0.745c-0.181-0.181-0.447-0.273-0.797-0.273h-1.04v2.067h0.996
		c0.349,0,0.623-0.094,0.82-0.28C159.856,43,159.954,42.745,159.954,42.42z"/>
	<path fill="#808080" d="M161.046,40.885h3.003v0.509h-2.442v1.638h2.295v0.516h-2.295v1.801h2.487v0.509h-3.047V40.885z"/>
	<path fill="#808080" d="M165.924,45.925c-0.354,0-0.64-0.027-0.86-0.08c-0.219-0.055-0.407-0.124-0.564-0.207l0.147-0.458
		c0.142,0.069,0.314,0.129,0.516,0.177c0.202,0.049,0.433,0.074,0.694,0.074c0.177,0,0.34-0.018,0.491-0.052
		c0.149-0.035,0.279-0.088,0.388-0.159s0.193-0.164,0.255-0.277c0.061-0.112,0.092-0.248,0.092-0.405
		c0-0.158-0.032-0.289-0.096-0.392c-0.064-0.103-0.152-0.192-0.262-0.265c-0.11-0.074-0.237-0.137-0.38-0.189
		c-0.142-0.052-0.293-0.102-0.449-0.152c-0.158-0.048-0.318-0.108-0.48-0.176c-0.162-0.069-0.312-0.157-0.449-0.263
		c-0.138-0.105-0.251-0.237-0.336-0.395c-0.087-0.157-0.129-0.352-0.129-0.582c0-0.187,0.03-0.361,0.092-0.521
		c0.062-0.16,0.159-0.297,0.292-0.413c0.133-0.115,0.302-0.206,0.509-0.272c0.206-0.067,0.455-0.1,0.745-0.1
		c0.245,0,0.47,0.024,0.671,0.07c0.202,0.046,0.383,0.112,0.546,0.196l-0.147,0.457c-0.143-0.068-0.308-0.124-0.495-0.166
		c-0.187-0.041-0.378-0.062-0.575-0.062c-0.389,0-0.669,0.074-0.841,0.225c-0.172,0.149-0.259,0.343-0.259,0.579
		c0,0.142,0.03,0.263,0.089,0.362c0.059,0.098,0.139,0.182,0.24,0.254c0.101,0.072,0.219,0.135,0.354,0.189
		c0.136,0.055,0.279,0.106,0.432,0.155c0.177,0.06,0.354,0.125,0.528,0.196c0.174,0.071,0.332,0.163,0.472,0.273
		s0.254,0.246,0.339,0.406c0.087,0.16,0.13,0.358,0.13,0.594c0,0.236-0.042,0.44-0.126,0.612c-0.084,0.172-0.201,0.314-0.351,0.428
		c-0.151,0.113-0.33,0.198-0.539,0.255C166.397,45.897,166.17,45.925,165.924,45.925z"/>
	<path fill="#808080" d="M169.104,46.509c0.227,0,0.41-0.058,0.55-0.173c0.14-0.115,0.235-0.255,0.283-0.418
		c-0.354-0.014-0.66-0.089-0.919-0.221c-0.258-0.133-0.472-0.312-0.642-0.539c-0.169-0.226-0.295-0.492-0.376-0.797
		c-0.081-0.305-0.122-0.635-0.122-0.989c0-0.364,0.043-0.702,0.129-1.015c0.087-0.312,0.221-0.582,0.403-0.811
		c0.181-0.229,0.41-0.407,0.686-0.535c0.275-0.128,0.603-0.192,0.981-0.192c0.379,0,0.706,0.064,0.981,0.192
		c0.276,0.128,0.504,0.306,0.687,0.535c0.182,0.229,0.316,0.499,0.402,0.811c0.087,0.313,0.129,0.652,0.129,1.015
		c0,0.334-0.035,0.646-0.106,0.937c-0.072,0.29-0.182,0.545-0.332,0.767c-0.151,0.222-0.339,0.404-0.565,0.546
		c-0.227,0.142-0.495,0.234-0.804,0.273c-0.04,0.128-0.101,0.248-0.185,0.362c-0.083,0.112-0.185,0.196-0.303,0.251h1.498v0.487
		h-2.494v-0.487H169.104z M170.079,45.46c0.552,0,0.962-0.186,1.233-0.557c0.27-0.371,0.405-0.881,0.405-1.531
		c0-0.325-0.033-0.615-0.099-0.871c-0.067-0.256-0.168-0.473-0.303-0.654c-0.135-0.179-0.306-0.316-0.512-0.412
		c-0.207-0.096-0.448-0.144-0.724-0.144c-0.556,0-0.968,0.186-1.236,0.557c-0.268,0.372-0.402,0.88-0.402,1.525
		c0,0.649,0.134,1.16,0.402,1.531S169.523,45.46,170.079,45.46z"/>
	<path fill="#808080" d="M174.699,45.925c-0.286,0-0.543-0.04-0.771-0.122c-0.229-0.08-0.425-0.206-0.588-0.376
		c-0.162-0.169-0.287-0.382-0.372-0.638c-0.087-0.256-0.129-0.561-0.129-0.915v-2.989h0.561v2.997c0,0.521,0.111,0.906,0.335,1.155
		c0.224,0.248,0.545,0.372,0.964,0.372c0.418,0,0.738-0.124,0.963-0.372c0.224-0.248,0.335-0.634,0.335-1.155v-2.997h0.561v2.989
		c0,0.355-0.042,0.66-0.129,0.915c-0.086,0.256-0.21,0.469-0.372,0.638c-0.163,0.17-0.359,0.296-0.587,0.376
		C175.241,45.885,174.984,45.925,174.699,45.925z"/>
	<path fill="#808080" d="M177.96,45.859h-0.561v-4.974h0.561V45.859z"/>
	<path fill="#808080" d="M180.04,45.925c-0.354,0-0.64-0.027-0.86-0.08c-0.219-0.055-0.407-0.124-0.564-0.207l0.147-0.458
		c0.142,0.069,0.314,0.129,0.516,0.177c0.202,0.049,0.433,0.074,0.694,0.074c0.177,0,0.34-0.018,0.491-0.052
		c0.149-0.035,0.279-0.088,0.388-0.159s0.193-0.164,0.255-0.277c0.061-0.112,0.092-0.248,0.092-0.405
		c0-0.158-0.032-0.289-0.096-0.392c-0.064-0.103-0.152-0.192-0.262-0.265c-0.11-0.074-0.237-0.137-0.38-0.189
		c-0.142-0.052-0.293-0.102-0.449-0.152c-0.158-0.048-0.318-0.108-0.48-0.176c-0.162-0.069-0.312-0.157-0.449-0.263
		c-0.138-0.105-0.251-0.237-0.336-0.395c-0.087-0.157-0.129-0.352-0.129-0.582c0-0.187,0.03-0.361,0.092-0.521
		c0.062-0.16,0.159-0.297,0.292-0.413c0.133-0.115,0.302-0.206,0.509-0.272c0.206-0.067,0.455-0.1,0.745-0.1
		c0.245,0,0.47,0.024,0.671,0.07c0.202,0.046,0.383,0.112,0.546,0.196l-0.147,0.457c-0.143-0.068-0.308-0.124-0.495-0.166
		c-0.187-0.041-0.378-0.062-0.575-0.062c-0.389,0-0.669,0.074-0.841,0.225c-0.172,0.149-0.259,0.343-0.259,0.579
		c0,0.142,0.03,0.263,0.089,0.362c0.059,0.098,0.139,0.182,0.24,0.254c0.101,0.072,0.219,0.135,0.354,0.189
		c0.136,0.055,0.279,0.106,0.432,0.155c0.177,0.06,0.354,0.125,0.528,0.196c0.174,0.071,0.332,0.163,0.472,0.273
		c0.14,0.11,0.254,0.246,0.339,0.406c0.087,0.16,0.13,0.358,0.13,0.594c0,0.236-0.042,0.44-0.126,0.612
		c-0.083,0.172-0.201,0.314-0.35,0.428c-0.151,0.113-0.33,0.198-0.539,0.255C180.513,45.897,180.287,45.925,180.04,45.925z"/>
	<path fill="#808080" d="M185.014,44.494h-2.118l-0.494,1.365h-0.576l1.853-4.974h0.561l1.853,4.974h-0.575L185.014,44.494z
		 M183.089,43.992h1.741l-0.546-1.476c-0.054-0.167-0.107-0.333-0.159-0.498s-0.104-0.331-0.159-0.498h-0.014
		c-0.055,0.167-0.107,0.333-0.159,0.498s-0.104,0.331-0.159,0.498L183.089,43.992z"/>
	<path fill="#808080" d="M187.715,45.925c-0.354,0-0.64-0.027-0.86-0.08c-0.219-0.055-0.407-0.124-0.564-0.207l0.147-0.458
		c0.142,0.069,0.314,0.129,0.516,0.177c0.202,0.049,0.433,0.074,0.694,0.074c0.177,0,0.34-0.018,0.491-0.052
		c0.149-0.035,0.279-0.088,0.388-0.159s0.193-0.164,0.255-0.277c0.061-0.112,0.092-0.248,0.092-0.405
		c0-0.158-0.032-0.289-0.096-0.392c-0.064-0.103-0.152-0.192-0.262-0.265c-0.11-0.074-0.237-0.137-0.38-0.189
		c-0.142-0.052-0.293-0.102-0.449-0.152c-0.158-0.048-0.318-0.108-0.48-0.176c-0.162-0.069-0.312-0.157-0.449-0.263
		c-0.138-0.105-0.251-0.237-0.336-0.395c-0.087-0.157-0.129-0.352-0.129-0.582c0-0.187,0.03-0.361,0.092-0.521
		c0.062-0.16,0.159-0.297,0.292-0.413c0.133-0.115,0.302-0.206,0.509-0.272c0.206-0.067,0.455-0.1,0.745-0.1
		c0.245,0,0.47,0.024,0.671,0.07c0.202,0.046,0.383,0.112,0.546,0.196L189,41.542c-0.143-0.068-0.308-0.124-0.495-0.166
		c-0.187-0.041-0.378-0.062-0.575-0.062c-0.389,0-0.669,0.074-0.841,0.225c-0.172,0.149-0.259,0.343-0.259,0.579
		c0,0.142,0.03,0.263,0.089,0.362c0.059,0.098,0.139,0.182,0.24,0.254c0.101,0.072,0.219,0.135,0.354,0.189
		c0.136,0.055,0.279,0.106,0.432,0.155c0.177,0.06,0.354,0.125,0.528,0.196c0.174,0.071,0.332,0.163,0.472,0.273
		c0.14,0.11,0.254,0.246,0.339,0.406c0.087,0.16,0.13,0.358,0.13,0.594c0,0.236-0.042,0.44-0.126,0.612
		c-0.084,0.172-0.201,0.314-0.351,0.428c-0.151,0.113-0.33,0.198-0.539,0.255C188.188,45.897,187.962,45.925,187.715,45.925z"/>
</g>
</svg>
