<?xml version="1.0" encoding="utf-8"?>
<!-- Generator: Adobe Illustrator 17.0.0, SVG Export Plug-In . SVG Version: 6.00 Build 0)  -->
<!DOCTYPE svg PUBLIC "-//W3C//DTD SVG 1.1//EN" "http://www.w3.org/Graphics/SVG/1.1/DTD/svg11.dtd">
<svg version="1.1" id="Camada_1" xmlns="http://www.w3.org/2000/svg" xmlns:xlink="http://www.w3.org/1999/xlink" x="0px" y="0px"
	 width="200px" height="50px" viewBox="0 0 200 50" enable-background="new 0 0 200 50" xml:space="preserve">
<path fill="#0090E9" d="M15.084,41.917c-1.052,0.354-2.08,0.008-3.077-0.207C5.858,40.383,1.223,35.457,0.189,29.232
	c-1.324-7.967,4.458-16.004,12.412-17.244c0.567-0.088,1.146-0.101,1.716-0.178c0.584-0.079,0.765,0.124,0.761,0.732
	c-0.026,4.44-0.015,8.881-0.013,13.321c0,0.301,0.018,0.601,0.028,0.902c0.25,0.297,0.212,0.659,0.212,1.005
	c0.006,4.381,0.006,8.763,0,13.144C15.305,41.262,15.335,41.623,15.084,41.917z"/>
<path fill="#F5D241" d="M15.084,41.917c0.003-5.051,0.006-10.101,0.01-15.152c1.202-1.211,2.404-2.422,3.607-3.633
	c0.109-0.348,0.366-0.584,0.606-0.84c1.502-1.603,3.217-2.986,4.732-4.576c0.361-0.379,0.744-0.735,1.066-1.153
	c0.15-0.195,0.288-0.499,0.645-0.348c2.874,2.996,4.353,6.576,4.349,10.721c-0.006,7.478-5.791,13.946-13.217,14.867
	C16.28,41.878,15.686,41.927,15.084,41.917z"/>
<path fill="#D94432" d="M25.748,16.215c-0.198,0.187-0.405,0.365-0.593,0.561c-2.088,2.183-4.285,4.256-6.456,6.356
	c-0.007-4.813-0.01-9.627-0.03-14.44c-0.002-0.403,0.125-0.515,0.515-0.497c3.752,0.179,7.018,1.493,9.746,4.106
	c0.293,0.28,0.265,0.44-0.006,0.709C27.854,14.067,26.805,15.145,25.748,16.215z"/>
<g>
	<path fill="#4D4D4D" d="M39.805,31.698l-2.91,9.113h-3.742l9.521-28.972h4.365l9.563,28.972h-3.867l-2.993-9.113
		C49.742,31.698,39.805,31.698,39.805,31.698z M48.994,28.775l-2.744-8.339c-0.623-1.891-1.039-3.611-1.455-5.287h-0.084
		c-0.415,1.719-0.873,3.481-1.413,5.244l-2.744,8.383h8.44V28.775z"/>
	<path fill="#4D4D4D" d="M64.666,40.811l-9.147-28.972h3.908l4.366,14.27c1.205,3.912,2.245,7.436,2.993,10.833h0.083
		c0.79-3.353,1.955-7.006,3.201-10.789l4.74-14.314h3.867l-10.02,28.972H64.666z"/>
	<path fill="#4D4D4D" d="M83.871,31.698l-2.91,9.113h-3.742l9.521-28.972h4.365l9.563,28.972h-3.866l-2.994-9.113
		C93.808,31.698,83.871,31.698,83.871,31.698z M93.06,28.775l-2.744-8.339c-0.623-1.891-1.039-3.611-1.455-5.287h-0.084
		c-0.415,1.719-0.873,3.481-1.413,5.244l-2.744,8.383h8.44V28.775z"/>
	<path fill="#4D4D4D" d="M104.781,11.839h3.617v25.833h11.974v3.138h-15.591C104.781,40.81,104.781,11.839,104.781,11.839z"/>
	<path fill="#4D4D4D" d="M128.019,11.839v28.972h-3.617V11.839H128.019z"/>
	<path fill="#4D4D4D" d="M138.868,31.698l-2.91,9.113h-3.742l9.521-28.972h4.365l9.563,28.972H151.8l-2.994-9.113
		C148.806,31.698,138.868,31.698,138.868,31.698z M148.058,28.775l-2.744-8.339c-0.625-1.891-1.039-3.611-1.456-5.287h-0.083
		c-0.416,1.719-0.874,3.481-1.414,5.244l-2.744,8.383h8.441V28.775z"/>
	<path fill="#4D4D4D" d="M158.781,38.575c0-1.59,1.039-2.708,2.495-2.708c1.454,0,2.452,1.118,2.452,2.708
		c0,1.548-0.955,2.708-2.494,2.708C159.779,41.283,158.781,40.123,158.781,38.575z"/>
</g>
<g>
	<path fill="#D94432" d="M181.707,33.296c-0.13-2.603-0.285-5.732-0.259-8.059h-0.077c-0.595,2.188-1.319,4.514-2.198,7.09
		l-3.077,9.056h-1.707l-2.818-8.89c-0.828-2.631-1.525-5.041-2.017-7.256h-0.052c-0.052,2.326-0.181,5.456-0.336,8.253l-0.465,8.004
		h-2.146l1.215-18.665h2.87l2.974,9.028c0.724,2.299,1.319,4.348,1.759,6.287h0.077c0.439-1.883,1.06-3.933,1.836-6.287l3.103-9.028
		h2.87l1.086,18.665h-2.198L181.707,33.296z"/>
	<path fill="#D94432" d="M196.829,32.742h-6.775v6.73h7.55v2.022h-9.799V22.828h9.411v2.022h-7.162v5.899h6.775V32.742z"/>
</g>
</svg>
