<?xml version="1.0" encoding="utf-8"?>
<!-- Generator: Adobe Illustrator 17.0.0, SVG Export Plug-In . SVG Version: 6.00 Build 0)  -->
<!DOCTYPE svg PUBLIC "-//W3C//DTD SVG 1.1//EN" "http://www.w3.org/Graphics/SVG/1.1/DTD/svg11.dtd">
<svg version="1.1" id="Camada_1" xmlns="http://www.w3.org/2000/svg" xmlns:xlink="http://www.w3.org/1999/xlink" x="0px" y="0px"
	 width="200px" height="50px" viewBox="0 0 200 50" enable-background="new 0 0 200 50" xml:space="preserve">
<g>
	<path fill="#2D81C1" d="M20.53,44.742c-1.357,0.457-2.684,0.01-3.97-0.267c-7.934-1.712-13.914-8.068-15.248-16.1
		c-1.708-10.28,5.752-20.65,16.015-22.249c0.732-0.114,1.479-0.13,2.214-0.23c0.754-0.102,0.987,0.16,0.982,0.944
		c-0.034,5.729-0.019,11.459-0.017,17.188c0,0.388,0.023,0.775,0.036,1.164c0.323,0.383,0.274,0.85,0.274,1.297
		c0.008,5.653,0.008,11.307,0,16.959C20.815,43.897,20.854,44.362,20.53,44.742z"/>
	<path fill="#EACA47" d="M20.53,44.742c0.004-6.517,0.008-13.033,0.013-19.55c1.551-1.563,3.102-3.125,4.654-4.688
		c0.141-0.449,0.472-0.754,0.782-1.084c1.938-2.068,4.151-3.853,6.106-5.904c0.466-0.489,0.96-0.948,1.375-1.488
		c0.194-0.252,0.372-0.644,0.832-0.449c3.708,3.866,5.617,8.485,5.611,13.833c-0.008,9.649-7.472,17.994-17.054,19.183
		C22.073,44.691,21.307,44.755,20.53,44.742z"/>
	<path fill="#C64938" d="M34.289,11.579c-0.255,0.241-0.523,0.471-0.765,0.724c-2.694,2.817-5.529,5.491-8.33,8.201
		c-0.009-6.21-0.013-12.421-0.039-18.632c-0.003-0.52,0.161-0.664,0.664-0.641c4.841,0.231,9.055,1.926,12.575,5.298
		c0.378,0.361,0.342,0.568-0.008,0.915C37.007,8.808,35.653,10.198,34.289,11.579z"/>
</g>
<g enable-background="new    ">
	<path fill="#FFFFFF" d="M59.637,27.57H49.294l-1.875,4.477h-4.204l9.285-21.17h4.204l9.164,21.17h-4.355L59.637,27.57z
		 M58.186,24.092l-3.689-8.892l-3.75,8.892H58.186z"/>
	<path fill="#FFFFFF" d="M68.706,10.876l6.23,16.665l6.291-16.665h4.173l-8.468,21.17h-4.204l-8.377-21.17H68.706z"/>
	<path fill="#FFFFFF" d="M100.335,27.57H89.992l-1.875,4.477h-4.204l9.285-21.17h4.204l9.163,21.17h-4.354L100.335,27.57z
		 M98.883,24.092l-3.689-8.892l-3.75,8.892H98.883z"/>
	<path fill="#FFFFFF" d="M113.183,10.876v17.51h9.134v3.66h-13.186v-21.17H113.183z"/>
	<path fill="#FFFFFF" d="M129.54,10.876v21.17h-4.052v-21.17H129.54z"/>
	<path fill="#FFFFFF" d="M148.531,27.57h-10.344l-1.875,4.477h-4.203l9.284-21.17h4.204l9.163,21.17h-4.354L148.531,27.57z
		 M147.079,24.092l-3.689-8.892l-3.75,8.892H147.079z"/>
</g>
<g enable-background="new    ">
	<path fill="#C64938" d="M180.572,10.733v21.314h-2.761V16.877c0-0.228,0.007-0.47,0.021-0.728c0.016-0.257,0.032-0.52,0.053-0.786
		l-7.095,13.017c-0.248,0.484-0.629,0.727-1.144,0.727h-0.445c-0.515,0-0.891-0.242-1.128-0.727l-7.229-13.062
		c0.06,0.555,0.09,1.074,0.09,1.559v15.169h-2.776V10.733h2.346c0.276,0,0.492,0.027,0.646,0.081
		c0.153,0.055,0.299,0.206,0.438,0.453l7.125,12.765c0.139,0.257,0.267,0.529,0.386,0.816s0.232,0.573,0.341,0.861
		c0.208-0.584,0.45-1.148,0.728-1.693l6.991-12.749c0.128-0.247,0.27-0.398,0.423-0.453c0.153-0.054,0.368-0.081,0.646-0.081
		H180.572z"/>
	<path fill="#C64938" d="M199.065,29.479l-0.015,2.568h-13.21V10.733h13.21V13.3h-10.034v6.753h8.075v2.479h-8.075v6.946H199.065z"
		/>
</g>
<g enable-background="new    ">
	<path fill="#FFFFFF" d="M43.41,36.885c-0.493,0-0.868,0.176-0.868,0.593c0,0.993,2.454,0.484,2.454,2.062
		c0,0.859-0.768,1.244-1.611,1.244c-0.626,0-1.269-0.218-1.686-0.618l0.25-0.476c0.375,0.351,0.943,0.56,1.461,0.56
		c0.517,0,0.935-0.2,0.943-0.643c0.025-1.068-2.437-0.526-2.429-2.079c0-0.834,0.726-1.193,1.527-1.193
		c0.526,0,1.035,0.159,1.402,0.4l-0.25,0.501C44.261,37.019,43.819,36.885,43.41,36.885z"/>
	<path fill="#FFFFFF" d="M50.08,38.555c0,1.318-0.926,2.229-2.229,2.229s-2.229-0.91-2.229-2.229c0-1.303,0.926-2.212,2.229-2.212
		S50.08,37.252,50.08,38.555z M46.273,38.562c0,0.985,0.66,1.652,1.578,1.652s1.578-0.667,1.578-1.652
		c0-0.968-0.66-1.645-1.578-1.645S46.273,37.595,46.273,38.562z"/>
	<path fill="#FFFFFF" d="M51.917,34.564v6.193h-0.651v-6.193H51.917z"/>
	<path fill="#FFFFFF" d="M57.36,36.367v4.391h-0.651v-0.993c-0.292,0.685-0.876,1.01-1.669,1.019c-1.027,0-1.645-0.651-1.645-1.711
		v-2.705h0.651v2.538c0,0.784,0.459,1.252,1.218,1.252c0.91-0.017,1.444-0.685,1.444-1.637v-2.153H57.36z"/>
	<path fill="#FFFFFF" d="M60.892,40.774l-0.175,0.4c0.342,0.042,0.592,0.268,0.592,0.626c0.009,0.451-0.342,0.752-0.81,0.752
		c-0.25,0-0.509-0.084-0.676-0.209l0.142-0.343c0.134,0.101,0.326,0.167,0.493,0.167c0.275,0,0.451-0.191,0.442-0.4
		c0-0.191-0.15-0.358-0.417-0.358c-0.083,0-0.2,0.017-0.275,0.024l0.284-0.659c-1.177-0.083-1.986-0.968-1.986-2.212
		c0-1.302,0.91-2.22,2.178-2.22c0.709,0,1.294,0.242,1.694,0.65l-0.359,0.451c-0.333-0.325-0.776-0.518-1.31-0.518
		c-0.91,0-1.561,0.668-1.561,1.636c0,0.977,0.651,1.645,1.561,1.645c0.576,0,1.051-0.2,1.36-0.567l0.375,0.384
		C62.085,40.457,61.56,40.725,60.892,40.774z"/>
	<path fill="#FFFFFF" d="M66.119,40.758v-0.685c-0.351,0.476-0.91,0.71-1.611,0.71c-0.91,0-1.494-0.576-1.494-1.327
		c0-0.769,0.609-1.252,1.644-1.261h1.444V37.92c0-0.643-0.4-1.035-1.177-1.035c-0.484,0-0.935,0.184-1.394,0.51l-0.276-0.459
		c0.568-0.376,1.043-0.593,1.795-0.593c1.085,0,1.686,0.575,1.694,1.511l0.008,2.904H66.119z M66.11,39.247v-0.534h-1.369
		c-0.734,0-1.118,0.226-1.118,0.718c0,0.484,0.392,0.81,1.01,0.81C65.375,40.24,65.943,39.873,66.11,39.247z M64.157,35.482h-0.434
		c0-0.609,0.242-0.935,0.692-0.935c0.434,0,0.701,0.509,1.01,0.509c0.233,0,0.359-0.158,0.359-0.441h0.434
		c0,0.608-0.242,0.935-0.693,0.935c-0.484,0-0.693-0.51-1.01-0.51C64.282,35.04,64.157,35.199,64.157,35.482z"/>
	<path fill="#FFFFFF" d="M72.221,38.555c0,1.318-0.926,2.229-2.229,2.229s-2.229-0.91-2.229-2.229c0-1.303,0.926-2.212,2.229-2.212
		S72.221,37.252,72.221,38.555z M68.415,38.562c0,0.985,0.66,1.652,1.578,1.652s1.578-0.667,1.578-1.652
		c0-0.968-0.66-1.645-1.578-1.645S68.415,37.595,68.415,38.562z"/>
	<path fill="#FFFFFF" d="M76.43,35.925v0.576h1.26v0.509h-1.26v3.748h-0.643V37.01h-0.567v-0.509h0.567v-0.492
		c0-0.952,0.676-1.478,1.411-1.469c0.334,0,0.676,0.108,0.943,0.309l-0.267,0.501c-0.2-0.143-0.442-0.226-0.668-0.226
		C76.78,35.115,76.43,35.407,76.43,35.925z"/>
	<path fill="#FFFFFF" d="M80.796,40.758v-0.685c-0.351,0.476-0.91,0.71-1.611,0.71c-0.91,0-1.494-0.576-1.494-1.327
		c0-0.769,0.609-1.252,1.644-1.261h1.444V37.92c0-0.643-0.4-1.035-1.177-1.035c-0.484,0-0.935,0.184-1.394,0.51l-0.275-0.459
		c0.568-0.376,1.043-0.593,1.795-0.593c1.085,0,1.686,0.575,1.694,1.511l0.008,2.904H80.796z M80.787,39.247v-0.534h-1.369
		c-0.734,0-1.118,0.226-1.118,0.718c0,0.484,0.392,0.81,1.01,0.81C80.053,40.24,80.621,39.873,80.787,39.247z M79.828,35.633h-0.626
		l1.001-1.127l0.659,0.301L79.828,35.633z"/>
	<path fill="#FFFFFF" d="M84.645,36.927c-0.91,0-1.561,0.668-1.561,1.636c0,0.977,0.651,1.645,1.561,1.645
		c0.576,0,1.052-0.2,1.36-0.567l0.375,0.384c-0.392,0.476-1.001,0.76-1.761,0.76c-1.277,0-2.178-0.91-2.178-2.221
		c0-1.302,0.91-2.22,2.178-2.22c0.709,0,1.294,0.242,1.694,0.65l-0.359,0.451C85.621,37.119,85.179,36.927,84.645,36.927z"/>
	<path fill="#FFFFFF" d="M88.31,35.107c0,0.25-0.184,0.442-0.426,0.442c-0.242,0-0.425-0.192-0.425-0.442
		c0-0.259,0.184-0.442,0.425-0.442C88.126,34.665,88.31,34.849,88.31,35.107z M88.209,36.367v4.391h-0.643v-4.391H88.209z"/>
	<path fill="#FFFFFF" d="M90.489,34.564v6.193h-0.651v-6.193H90.489z"/>
	<path fill="#FFFFFF" d="M98.903,38.571c0,1.302-0.851,2.212-2.095,2.212c-0.785,0-1.386-0.359-1.711-0.969v2.562h-0.651v-6.01
		h0.651v0.943c0.325-0.609,0.926-0.968,1.694-0.968C98.036,36.343,98.903,37.261,98.903,38.571z M98.244,38.555
		c0-0.952-0.651-1.653-1.569-1.653c-0.926,0-1.577,0.693-1.577,1.653c0,0.968,0.651,1.652,1.577,1.652
		C97.593,40.207,98.244,39.515,98.244,38.555z"/>
	<path fill="#FFFFFF" d="M102.777,40.758v-0.685c-0.351,0.476-0.91,0.71-1.611,0.71c-0.909,0-1.493-0.576-1.493-1.327
		c0-0.769,0.609-1.252,1.644-1.261h1.444V37.92c0-0.643-0.4-1.035-1.177-1.035c-0.484,0-0.935,0.184-1.394,0.51l-0.276-0.459
		c0.568-0.376,1.043-0.593,1.794-0.593c1.085,0,1.687,0.575,1.694,1.511l0.009,2.904H102.777z M102.769,39.247v-0.534H101.4
		c-0.734,0-1.118,0.226-1.118,0.718c0,0.484,0.392,0.81,1.01,0.81C102.034,40.24,102.603,39.873,102.769,39.247z"/>
	<path fill="#FFFFFF" d="M107.094,36.343v0.634c-0.926-0.017-1.502,0.56-1.577,1.444v2.337h-0.651v-4.391h0.651v0.977
		C105.809,36.701,106.352,36.351,107.094,36.343z"/>
	<path fill="#FFFFFF" d="M110.492,40.758v-0.685c-0.351,0.476-0.91,0.71-1.611,0.71c-0.91,0-1.494-0.576-1.494-1.327
		c0-0.769,0.609-1.252,1.645-1.261h1.443V37.92c0-0.643-0.4-1.035-1.177-1.035c-0.483,0-0.935,0.184-1.394,0.51l-0.275-0.459
		c0.567-0.376,1.043-0.593,1.795-0.593c1.085,0,1.686,0.575,1.694,1.511l0.008,2.904H110.492z M110.483,39.247v-0.534h-1.369
		c-0.734,0-1.118,0.226-1.118,0.718c0,0.484,0.393,0.81,1.01,0.81C109.749,40.24,110.316,39.873,110.483,39.247z"/>
	<path fill="#FFFFFF" d="M116.629,36.927c-0.91,0-1.562,0.668-1.562,1.636c0,0.977,0.651,1.645,1.562,1.645
		c0.575,0,1.052-0.2,1.36-0.567l0.375,0.384c-0.392,0.476-1.001,0.76-1.761,0.76c-1.277,0-2.179-0.91-2.179-2.221
		c0-1.302,0.91-2.22,2.179-2.22c0.709,0,1.294,0.242,1.694,0.65l-0.359,0.451C117.605,37.119,117.163,36.927,116.629,36.927z"/>
	<path fill="#FFFFFF" d="M121.779,36.343v0.634c-0.926-0.017-1.502,0.56-1.577,1.444v2.337h-0.651v-4.391h0.651v0.977
		C120.494,36.701,121.037,36.351,121.779,36.343z"/>
	<path fill="#FFFFFF" d="M123.399,35.107c0,0.25-0.184,0.442-0.426,0.442c-0.241,0-0.425-0.192-0.425-0.442
		c0-0.259,0.184-0.442,0.425-0.442C123.216,34.665,123.399,34.849,123.399,35.107z M123.3,36.367v4.391h-0.643v-4.391H123.3z"/>
	<path fill="#FFFFFF" d="M127.615,40.758v-0.685c-0.351,0.476-0.91,0.71-1.611,0.71c-0.909,0-1.493-0.576-1.493-1.327
		c0-0.769,0.609-1.252,1.644-1.261h1.444V37.92c0-0.643-0.4-1.035-1.177-1.035c-0.484,0-0.935,0.184-1.394,0.51l-0.276-0.459
		c0.568-0.376,1.044-0.593,1.795-0.593c1.085,0,1.687,0.575,1.694,1.511l0.009,2.904H127.615z M127.606,39.247v-0.534h-1.368
		c-0.734,0-1.118,0.226-1.118,0.718c0,0.484,0.392,0.81,1.01,0.81C126.872,40.24,127.44,39.873,127.606,39.247z"/>
	<path fill="#FFFFFF" d="M131.648,40.774l-0.176,0.4c0.343,0.042,0.593,0.268,0.593,0.626c0.009,0.451-0.342,0.752-0.81,0.752
		c-0.25,0-0.509-0.084-0.676-0.209l0.142-0.343c0.134,0.101,0.325,0.167,0.492,0.167c0.275,0,0.451-0.191,0.442-0.4
		c0-0.191-0.15-0.358-0.417-0.358c-0.084,0-0.2,0.017-0.275,0.024l0.283-0.659c-1.177-0.083-1.986-0.968-1.986-2.212
		c0-1.302,0.91-2.22,2.179-2.22c0.709,0,1.294,0.242,1.694,0.65l-0.359,0.451c-0.333-0.325-0.775-0.518-1.31-0.518
		c-0.91,0-1.562,0.668-1.562,1.636c0,0.977,0.651,1.645,1.562,1.645c0.575,0,1.052-0.2,1.36-0.567l0.375,0.384
		C132.842,40.457,132.315,40.725,131.648,40.774z"/>
	<path fill="#FFFFFF" d="M136.874,40.758v-0.685c-0.351,0.476-0.91,0.71-1.611,0.71c-0.909,0-1.493-0.576-1.493-1.327
		c0-0.769,0.609-1.252,1.644-1.261h1.444V37.92c0-0.643-0.4-1.035-1.177-1.035c-0.484,0-0.935,0.184-1.394,0.51l-0.276-0.459
		c0.568-0.376,1.044-0.593,1.795-0.593c1.085,0,1.687,0.575,1.694,1.511l0.009,2.904H136.874z M136.865,39.247v-0.534h-1.368
		c-0.734,0-1.118,0.226-1.118,0.718c0,0.484,0.392,0.81,1.01,0.81C136.131,40.24,136.699,39.873,136.865,39.247z M134.913,35.482
		h-0.435c0-0.609,0.242-0.935,0.692-0.935c0.435,0,0.701,0.509,1.011,0.509c0.233,0,0.358-0.158,0.358-0.441h0.435
		c0,0.608-0.242,0.935-0.693,0.935c-0.484,0-0.692-0.51-1.01-0.51C135.038,35.04,134.913,35.199,134.913,35.482z"/>
	<path fill="#FFFFFF" d="M142.977,38.555c0,1.318-0.926,2.229-2.229,2.229c-1.302,0-2.229-0.91-2.229-2.229
		c0-1.303,0.927-2.212,2.229-2.212C142.051,36.343,142.977,37.252,142.977,38.555z M139.171,38.562c0,0.985,0.659,1.652,1.577,1.652
		s1.578-0.667,1.578-1.652c0-0.968-0.66-1.645-1.578-1.645S139.171,37.595,139.171,38.562z"/>
	<path fill="#FFFFFF" d="M150.448,34.564v6.193h-0.65v-0.943c-0.326,0.618-0.927,0.977-1.711,0.977c-1.252,0-2.12-0.927-2.12-2.236
		c0-1.311,0.868-2.221,2.111-2.221c0.784,0,1.394,0.359,1.72,0.985v-2.755H150.448z M149.798,38.571c0-0.969-0.659-1.67-1.586-1.67
		c-0.935,0-1.595,0.701-1.595,1.67c0,0.968,0.66,1.661,1.595,1.661C149.139,40.232,149.798,39.539,149.798,38.571z"/>
	<path fill="#FFFFFF" d="M155.867,38.805h-3.589c0.108,0.868,0.734,1.436,1.594,1.436c0.543,0,1.019-0.2,1.36-0.56l0.359,0.376
		c-0.417,0.459-1.035,0.727-1.77,0.727c-1.294,0-2.187-0.91-2.187-2.221s0.901-2.212,2.178-2.22
		C155.232,36.343,155.934,37.319,155.867,38.805z M155.283,38.287c-0.042-0.852-0.609-1.402-1.47-1.402
		c-0.843,0-1.443,0.551-1.535,1.402H155.283z"/>
	<path fill="#FFFFFF" d="M163.773,38.571c0,1.302-0.852,2.212-2.095,2.212c-0.785,0-1.386-0.359-1.711-0.969v2.562h-0.651v-6.01
		h0.651v0.943c0.325-0.609,0.926-0.968,1.694-0.968C162.905,36.343,163.773,37.261,163.773,38.571z M163.114,38.555
		c0-0.952-0.651-1.653-1.569-1.653c-0.927,0-1.577,0.693-1.577,1.653c0,0.968,0.65,1.652,1.577,1.652
		C162.463,40.207,163.114,39.515,163.114,38.555z"/>
	<path fill="#FFFFFF" d="M168.707,38.805h-3.589c0.108,0.868,0.734,1.436,1.595,1.436c0.542,0,1.019-0.2,1.36-0.56l0.358,0.376
		c-0.417,0.459-1.034,0.727-1.769,0.727c-1.294,0-2.188-0.91-2.188-2.221s0.901-2.212,2.179-2.22
		C168.073,36.343,168.774,37.319,168.707,38.805z M168.123,38.287c-0.042-0.852-0.609-1.402-1.469-1.402
		c-0.843,0-1.444,0.551-1.536,1.402H168.123z"/>
	<path fill="#FFFFFF" d="M170.954,36.885c-0.492,0-0.868,0.176-0.868,0.593c0,0.993,2.454,0.484,2.454,2.062
		c0,0.859-0.768,1.244-1.611,1.244c-0.626,0-1.269-0.218-1.686-0.618l0.25-0.476c0.376,0.351,0.943,0.56,1.461,0.56
		s0.935-0.2,0.943-0.643c0.024-1.068-2.438-0.526-2.429-2.079c0-0.834,0.726-1.193,1.527-1.193c0.525,0,1.035,0.159,1.402,0.4
		l-0.251,0.501C171.806,37.019,171.363,36.885,170.954,36.885z"/>
	<path fill="#FFFFFF" d="M177.649,36.367v6.01h-0.651v-2.562c-0.325,0.618-0.926,0.977-1.711,0.977c-1.252,0-2.12-0.927-2.12-2.236
		c0-1.311,0.868-2.221,2.112-2.221c0.784,0,1.394,0.359,1.719,0.985v-0.952H177.649z M176.998,38.571c0-0.969-0.659-1.67-1.586-1.67
		c-0.935,0-1.594,0.701-1.594,1.67c0,0.968,0.659,1.661,1.594,1.661C176.339,40.232,176.998,39.539,176.998,38.571z"/>
	<path fill="#FFFFFF" d="M183.093,36.367v4.391h-0.651v-0.993c-0.292,0.685-0.876,1.01-1.669,1.019
		c-1.027,0-1.645-0.651-1.645-1.711v-2.705h0.651v2.538c0,0.784,0.459,1.252,1.218,1.252c0.91-0.017,1.444-0.685,1.444-1.637v-2.153
		H183.093z"/>
	<path fill="#FFFFFF" d="M185.423,35.107c0,0.25-0.184,0.442-0.426,0.442s-0.426-0.192-0.426-0.442c0-0.259,0.184-0.442,0.426-0.442
		S185.423,34.849,185.423,35.107z M185.322,36.367v4.391h-0.643v-4.391H185.322z"/>
	<path fill="#FFFFFF" d="M188.036,36.885c-0.493,0-0.868,0.176-0.868,0.593c0,0.993,2.453,0.484,2.453,2.062
		c0,0.859-0.768,1.244-1.61,1.244c-0.626,0-1.269-0.218-1.687-0.618l0.251-0.476c0.375,0.351,0.943,0.56,1.461,0.56
		c0.517,0,0.935-0.2,0.942-0.643c0.025-1.068-2.437-0.526-2.429-2.079c0-0.834,0.727-1.193,1.527-1.193
		c0.526,0,1.035,0.159,1.402,0.4l-0.25,0.501C188.887,37.019,188.444,36.885,188.036,36.885z"/>
	<path fill="#FFFFFF" d="M193.42,40.758v-0.685c-0.351,0.476-0.91,0.71-1.611,0.71c-0.909,0-1.493-0.576-1.493-1.327
		c0-0.769,0.609-1.252,1.644-1.261h1.444V37.92c0-0.643-0.4-1.035-1.177-1.035c-0.484,0-0.935,0.184-1.394,0.51l-0.276-0.459
		c0.568-0.376,1.044-0.593,1.795-0.593c1.085,0,1.687,0.575,1.694,1.511l0.009,2.904H193.42z M193.411,39.247v-0.534h-1.368
		c-0.734,0-1.118,0.226-1.118,0.718c0,0.484,0.392,0.81,1.01,0.81C192.677,40.24,193.245,39.873,193.411,39.247z"/>
	<path fill="#FFFFFF" d="M196.635,36.885c-0.492,0-0.868,0.176-0.868,0.593c0,0.993,2.454,0.484,2.454,2.062
		c0,0.859-0.768,1.244-1.611,1.244c-0.626,0-1.269-0.218-1.686-0.618l0.25-0.476c0.376,0.351,0.943,0.56,1.461,0.56
		s0.935-0.2,0.943-0.643c0.024-1.068-2.438-0.526-2.429-2.079c0-0.834,0.726-1.193,1.527-1.193c0.525,0,1.035,0.159,1.402,0.4
		l-0.251,0.501C197.486,37.019,197.044,36.885,196.635,36.885z"/>
</g>
</svg>
