<?xml version="1.0" encoding="utf-8"?>
<!-- Generator: Adobe Illustrator 17.0.0, SVG Export Plug-In . SVG Version: 6.00 Build 0)  -->
<!DOCTYPE svg PUBLIC "-//W3C//DTD SVG 1.1//EN" "http://www.w3.org/Graphics/SVG/1.1/DTD/svg11.dtd">
<svg version="1.1" id="Camada_1" xmlns="http://www.w3.org/2000/svg" xmlns:xlink="http://www.w3.org/1999/xlink" x="0px" y="0px"
	 width="100px" height="48px" viewBox="0 0 100 48" enable-background="new 0 0 100 48" xml:space="preserve">
<g>
	<path fill="#0090E9" d="M20.342,46.48c-1.419,0.477-2.805,0.011-4.15-0.279C7.9,44.411,1.65,37.768,0.255,29.373
		C-1.53,18.628,6.267,7.79,16.994,6.118c0.765-0.119,1.545-0.136,2.314-0.24c0.788-0.107,1.032,0.167,1.026,0.987
		c-0.035,5.988-0.02,11.977-0.018,17.965c0,0.406,0.024,0.811,0.038,1.216c0.337,0.401,0.286,0.889,0.286,1.355
		c0.008,5.908,0.008,11.818,0,17.726C20.64,45.596,20.681,46.083,20.342,46.48z"/>
	<path fill="#F5D241" d="M20.342,46.48c0.004-6.812,0.008-13.622,0.013-20.434c1.621-1.633,3.242-3.266,4.864-4.899
		c0.147-0.469,0.494-0.788,0.817-1.133c2.026-2.162,4.338-4.027,6.382-6.171c0.487-0.511,1.003-0.991,1.438-1.555
		c0.202-0.263,0.388-0.673,0.87-0.469c3.876,4.04,5.87,8.868,5.865,14.458c-0.008,10.085-7.81,18.807-17.824,20.049
		C21.955,46.427,21.154,46.493,20.342,46.48z"/>
	<path fill="#D94432" d="M34.724,11.818c-0.267,0.252-0.546,0.492-0.8,0.757c-2.816,2.944-5.779,5.74-8.706,8.572
		c-0.009-6.491-0.013-12.983-0.04-19.474c-0.003-0.543,0.169-0.695,0.695-0.67c5.06,0.241,9.464,2.013,13.143,5.537
		c0.395,0.378,0.357,0.593-0.008,0.956C37.564,8.921,36.149,10.375,34.724,11.818z"/>
</g>
<g>
	<path fill="#434142" d="M49.069,19.117h-2.977l-0.54,1.288h-1.21l2.672-6.093h1.21l2.637,6.093h-1.253L49.069,19.117z
		 M48.652,18.116l-1.062-2.559l-1.079,2.559H48.652z"/>
	<path fill="#434142" d="M51.679,14.312l1.793,4.796l1.811-4.796h1.201l-2.437,6.093h-1.21l-2.411-6.093H51.679z"/>
	<path fill="#434142" d="M60.783,19.117h-2.977l-0.54,1.288h-1.21l2.672-6.093h1.21l2.637,6.093h-1.254L60.783,19.117z
		 M60.365,18.116l-1.062-2.559l-1.079,2.559H60.365z"/>
	<path fill="#434142" d="M64.481,14.312v5.04h2.629v1.053h-3.795v-6.093H64.481z"/>
	<path fill="#434142" d="M69.189,14.312v6.093h-1.166v-6.093H69.189z"/>
	<path fill="#434142" d="M74.655,19.117h-2.977l-0.54,1.288h-1.21l2.672-6.093h1.21l2.638,6.093h-1.254L74.655,19.117z
		 M74.237,18.116l-1.062-2.559l-1.079,2.559H74.237z"/>
</g>
<g>
	<path fill="#C44837" d="M83.777,14.312v6.093h-0.789v-4.336c0-0.065,0.002-0.134,0.006-0.208c0.004-0.073,0.009-0.149,0.015-0.225
		l-2.028,3.721c-0.071,0.138-0.18,0.208-0.327,0.208h-0.127c-0.147,0-0.255-0.07-0.322-0.208l-2.066-3.734
		c0.017,0.158,0.025,0.307,0.025,0.446v4.336H77.37v-6.093h0.671c0.079,0,0.141,0.008,0.185,0.023
		c0.044,0.016,0.085,0.059,0.125,0.129l2.037,3.649c0.039,0.074,0.076,0.151,0.11,0.233c0.034,0.082,0.066,0.164,0.097,0.246
		c0.059-0.167,0.129-0.328,0.208-0.484l1.999-3.645c0.037-0.071,0.077-0.114,0.121-0.129c0.044-0.015,0.105-0.023,0.185-0.023
		H83.777z"/>
	<path fill="#C44837" d="M89.064,19.672l-0.004,0.734h-3.776v-6.093h3.776v0.734h-2.868v1.931H88.5v0.709h-2.308v1.986H89.064z"/>
</g>
<text transform="matrix(1 0 0 1 44.3428 28.0869)"><tspan x="0" y="0" fill="#010002" font-family="'Montserrat-Light'" font-size="5.2667">solução fácil para </tspan><tspan x="0" y="5.047" fill="#010002" font-family="'Montserrat-Light'" font-size="5.2667">criação de pesquisas</tspan></text>
</svg>
