<?xml version="1.0" encoding="utf-8"?>
<!-- Generator: Adobe Illustrator 17.0.0, SVG Export Plug-In . SVG Version: 6.00 Build 0)  -->
<!DOCTYPE svg PUBLIC "-//W3C//DTD SVG 1.1//EN" "http://www.w3.org/Graphics/SVG/1.1/DTD/svg11.dtd">
<svg version="1.1" id="Camada_1" xmlns="http://www.w3.org/2000/svg" xmlns:xlink="http://www.w3.org/1999/xlink" x="0px" y="0px"
	 width="100px" height="48px" viewBox="0 0 100 48" enable-background="new 0 0 100 48" xml:space="preserve">
<g>
	<path fill="#0090E9" d="M20.342,46.48c-1.419,0.477-2.805,0.011-4.15-0.279C7.9,44.411,1.65,37.768,0.255,29.373
		C-1.53,18.628,6.267,7.79,16.994,6.118c0.765-0.119,1.545-0.136,2.314-0.24c0.788-0.107,1.032,0.167,1.026,0.987
		c-0.035,5.988-0.02,11.977-0.018,17.965c0,0.406,0.024,0.811,0.038,1.216c0.337,0.401,0.286,0.889,0.286,1.355
		c0.008,5.908,0.008,11.818,0,17.726C20.64,45.596,20.681,46.083,20.342,46.48z"/>
	<path fill="#F5D241" d="M20.342,46.48c0.004-6.812,0.008-13.622,0.013-20.434c1.621-1.633,3.242-3.266,4.864-4.899
		c0.147-0.469,0.494-0.788,0.817-1.133c2.026-2.162,4.338-4.027,6.382-6.171c0.487-0.511,1.003-0.991,1.438-1.555
		c0.202-0.263,0.388-0.673,0.87-0.469c3.876,4.04,5.87,8.868,5.865,14.458c-0.008,10.085-7.81,18.807-17.824,20.049
		C21.955,46.427,21.154,46.493,20.342,46.48z"/>
	<path fill="#D94432" d="M34.724,11.818c-0.267,0.252-0.546,0.492-0.8,0.757c-2.816,2.944-5.779,5.74-8.706,8.572
		c-0.009-6.491-0.013-12.983-0.04-19.474c-0.003-0.543,0.169-0.695,0.695-0.67c5.06,0.241,9.464,2.013,13.143,5.537
		c0.395,0.378,0.357,0.593-0.008,0.956C37.564,8.921,36.149,10.375,34.724,11.818z"/>
</g>
<g>
	<path fill="#4D4D4D" d="M49.221,17.287c0.664,0.409,1.634,0.749,2.656,0.749c1.515,0,2.4-0.8,2.4-1.958
		c0-1.073-0.613-1.685-2.162-2.281c-1.873-0.664-3.03-1.634-3.03-3.252c0-1.787,1.481-3.115,3.711-3.115
		c1.175,0,2.026,0.272,2.537,0.562l-0.409,1.209c-0.375-0.204-1.141-0.545-2.179-0.545c-1.566,0-2.162,0.936-2.162,1.719
		c0,1.072,0.698,1.6,2.281,2.213c1.941,0.749,2.928,1.685,2.928,3.371c0,1.771-1.311,3.303-4.017,3.303
		c-1.107,0-2.315-0.324-2.928-0.732L49.221,17.287z"/>
	<path fill="#4D4D4D" d="M59.298,7.618v6.792c0,2.57,1.141,3.66,2.673,3.66c1.702,0,2.792-1.124,2.792-3.66V7.618h1.498v6.69
		c0,3.524-1.855,4.971-4.341,4.971c-2.349,0-4.12-1.345-4.12-4.903V7.618H59.298z"/>
	<path fill="#4D4D4D" d="M68.83,7.755c0.715-0.119,1.651-0.221,2.843-0.221c1.464,0,2.536,0.341,3.217,0.953
		c0.63,0.545,1.004,1.379,1.004,2.4c0,1.038-0.306,1.856-0.885,2.452c-0.783,0.834-2.06,1.259-3.507,1.259
		c-0.443,0-0.851-0.017-1.191-0.102v4.596H68.83V7.755z M70.311,13.287c0.323,0.085,0.732,0.119,1.226,0.119
		c1.788,0,2.877-0.868,2.877-2.451c0-1.515-1.072-2.247-2.707-2.247c-0.647,0-1.141,0.051-1.396,0.119V13.287z"/>
	<path fill="#4D4D4D" d="M83.827,13.713h-4.46v4.136h4.971v1.243h-6.452V7.618h6.196v1.243h-4.715v3.626h4.46V13.713z"/>
	<path fill="#4D4D4D" d="M86.261,7.772c0.749-0.153,1.821-0.239,2.843-0.239c1.583,0,2.605,0.289,3.32,0.936
		c0.579,0.511,0.903,1.294,0.903,2.179c0,1.515-0.954,2.519-2.162,2.928v0.051c0.885,0.306,1.413,1.124,1.685,2.315
		c0.374,1.6,0.647,2.707,0.885,3.149h-1.532c-0.187-0.323-0.443-1.311-0.766-2.741c-0.34-1.583-0.953-2.179-2.298-2.23h-1.396v4.971
		h-1.481V7.772z M87.741,12.998h1.515c1.583,0,2.587-0.868,2.587-2.179c0-1.481-1.072-2.128-2.639-2.145
		c-0.715,0-1.226,0.068-1.464,0.136V12.998z"/>
</g>
<g>
	<path fill="#D94432" d="M56.743,25.282c-1.96,0-3.488,0.613-4.587,1.84c-1.099,1.226-1.648,2.982-1.648,5.264
		c0,2.248,0.544,3.991,1.636,5.226c1.09,1.236,2.615,1.853,4.574,1.853c1.397,0,2.658-0.273,3.782-0.818l0.486,1.636
		c-0.614,0.306-1.265,0.542-1.955,0.703c-0.69,0.162-1.469,0.242-2.338,0.242c-1.397,0-2.603-0.213-3.616-0.639
		c-1.014-0.425-1.853-1.022-2.517-1.788c-0.664-0.767-1.159-1.695-1.482-2.785c-0.324-1.09-0.486-2.3-0.486-3.629
		c0-1.295,0.179-2.487,0.536-3.578c0.358-1.09,0.882-2.023,1.572-2.798c0.69-0.775,1.538-1.38,2.543-1.814
		c1.005-0.435,2.164-0.652,3.475-0.652c0.886,0,1.652,0.073,2.3,0.217c0.647,0.145,1.252,0.345,1.814,0.601l-0.486,1.636
		C59.307,25.521,58.106,25.282,56.743,25.282z"/>
	<path fill="#D94432" d="M74.555,28.872c0,1.247-0.361,2.323-1.086,3.228s-1.708,1.511-2.951,1.819l4.165,7.079h-2.12l-4.038-6.874
		h-0.026h-3.782v6.874h-1.917v-17.25h6.108c0.885,0,1.682,0.133,2.389,0.397c0.707,0.265,1.299,0.627,1.776,1.089
		c0.477,0.461,0.843,1.003,1.099,1.627C74.428,27.485,74.555,28.155,74.555,28.872z M72.613,28.885c0-1.023-0.315-1.827-0.946-2.415
		c-0.63-0.588-1.55-0.882-2.76-0.882h-4.191v6.746h4.037c1.209,0,2.155-0.306,2.837-0.92C72.272,30.802,72.613,29.958,72.613,28.885
		z"/>
	<path fill="#D94432" d="M83.422,38.187l-3.782-8.306c-0.239-0.511-0.469-1.026-0.69-1.546s-0.443-1.12-0.664-1.802h-0.051
		c0.103,0.784,0.162,1.533,0.179,2.249c0.017,0.715,0.026,1.287,0.026,1.712v10.503h-1.917V23.774h2.275l4.165,9.225
		c0.119,0.273,0.256,0.575,0.409,0.907c0.154,0.332,0.298,0.661,0.435,0.984c0.136,0.324,0.259,0.63,0.37,0.92
		c0.111,0.29,0.192,0.528,0.242,0.716h0.077c0.051-0.187,0.132-0.425,0.242-0.716c0.111-0.289,0.234-0.596,0.371-0.92
		c0.136-0.323,0.276-0.652,0.421-0.984c0.145-0.332,0.286-0.634,0.422-0.907l4.166-9.225h2.274v17.224h-1.916V30.495
		c0-0.425,0.008-0.997,0.025-1.712c0.017-0.716,0.077-1.465,0.179-2.249h-0.051c-0.221,0.681-0.443,1.282-0.664,1.802
		c-0.222,0.519-0.452,1.035-0.69,1.546l-3.782,8.306H83.422z"/>
</g>
</svg>
