<?xml version="1.0" encoding="utf-8"?>
<!-- Generator: Adobe Illustrator 17.0.0, SVG Export Plug-In . SVG Version: 6.00 Build 0)  -->
<!DOCTYPE svg PUBLIC "-//W3C//DTD SVG 1.1//EN" "http://www.w3.org/Graphics/SVG/1.1/DTD/svg11.dtd">
<svg version="1.1" id="Camada_1" xmlns="http://www.w3.org/2000/svg" xmlns:xlink="http://www.w3.org/1999/xlink" x="0px" y="0px"
	 width="100px" height="48px" viewBox="0 0 100 48" enable-background="new 0 0 100 48" xml:space="preserve">
<g>
	<path fill="#0090E9" d="M20.342,46.48c-1.419,0.477-2.805,0.011-4.15-0.279C7.9,44.411,1.65,37.768,0.255,29.373
		C-1.53,18.628,6.267,7.79,16.994,6.118c0.765-0.119,1.545-0.136,2.314-0.24c0.788-0.107,1.032,0.167,1.026,0.987
		c-0.035,5.988-0.02,11.977-0.018,17.965c0,0.406,0.024,0.811,0.038,1.216c0.337,0.401,0.286,0.889,0.286,1.355
		c0.008,5.908,0.008,11.818,0,17.726C20.64,45.596,20.681,46.083,20.342,46.48z"/>
	<path fill="#F5D241" d="M20.342,46.48c0.004-6.812,0.008-13.622,0.013-20.434c1.621-1.633,3.242-3.266,4.864-4.899
		c0.147-0.469,0.494-0.788,0.817-1.133c2.026-2.162,4.338-4.027,6.382-6.171c0.487-0.511,1.003-0.991,1.438-1.555
		c0.202-0.263,0.388-0.673,0.87-0.469c3.876,4.04,5.87,8.868,5.865,14.458c-0.008,10.085-7.81,18.807-17.824,20.049
		C21.955,46.427,21.154,46.493,20.342,46.48z"/>
	<path fill="#D94432" d="M34.724,11.818c-0.267,0.252-0.546,0.492-0.8,0.757c-2.816,2.944-5.779,5.74-8.706,8.572
		c-0.009-6.491-0.013-12.983-0.04-19.474c-0.003-0.543,0.169-0.695,0.695-0.67c5.06,0.241,9.464,2.013,13.143,5.537
		c0.395,0.378,0.357,0.593-0.008,0.956C37.564,8.921,36.149,10.375,34.724,11.818z"/>
</g>
<g>
	<path fill="#4D4D4D" d="M45.512,22.349l-0.972,3.043h-1.25l3.18-9.675h1.458l3.194,9.675H49.83l-1-3.043
		C48.83,22.349,45.512,22.349,45.512,22.349z M48.581,21.373l-0.916-2.785c-0.208-0.631-0.347-1.206-0.486-1.766H47.15
		c-0.139,0.574-0.292,1.162-0.472,1.751l-0.916,2.799L48.581,21.373L48.581,21.373z"/>
	<path fill="#4D4D4D" d="M53.814,25.392l-3.055-9.675h1.305l1.458,4.765c0.402,1.306,0.75,2.483,1,3.618h0.028
		c0.264-1.12,0.653-2.34,1.069-3.603l1.583-4.78h1.291l-3.346,9.675H53.814z"/>
	<path fill="#4D4D4D" d="M60.228,22.349l-0.972,3.043h-1.25l3.18-9.675h1.458l3.194,9.675h-1.291l-1-3.043
		C63.546,22.349,60.228,22.349,60.228,22.349z M63.296,21.373l-0.916-2.785c-0.208-0.631-0.347-1.206-0.486-1.766h-0.028
		c-0.139,0.574-0.292,1.162-0.472,1.751l-0.916,2.799L63.296,21.373L63.296,21.373z"/>
	<path fill="#4D4D4D" d="M67.21,15.717h1.208v8.627h3.999v1.048H67.21C67.21,25.392,67.21,15.717,67.21,15.717z"/>
	<path fill="#4D4D4D" d="M74.971,15.717v9.675h-1.208v-9.675H74.971z"/>
	<path fill="#4D4D4D" d="M78.594,22.349l-0.972,3.043h-1.25l3.18-9.675h1.458l3.194,9.675h-1.291l-1-3.043
		C81.913,22.349,78.594,22.349,78.594,22.349z M81.663,21.373l-0.916-2.785c-0.209-0.631-0.347-1.206-0.486-1.766h-0.028
		c-0.139,0.574-0.292,1.162-0.472,1.751l-0.916,2.799L81.663,21.373L81.663,21.373z"/>
	<path fill="#4D4D4D" d="M85.244,24.645c0-0.531,0.347-0.904,0.833-0.904c0.486,0,0.819,0.373,0.819,0.904
		c0,0.517-0.319,0.904-0.833,0.904C85.577,25.55,85.244,25.162,85.244,24.645z"/>
</g>
<g>
	<path fill="#D94432" d="M93.206,22.429c-0.049-0.991-0.108-2.182-0.099-3.068h-0.029c-0.227,0.833-0.502,1.718-0.837,2.699
		l-1.171,3.448h-0.65l-1.073-3.384c-0.315-1.002-0.581-1.919-0.768-2.762h-0.02c-0.02,0.885-0.069,2.077-0.128,3.142l-0.177,3.047
		h-0.817l0.463-7.106h1.093l1.132,3.437c0.276,0.875,0.502,1.655,0.67,2.393h0.029c0.167-0.717,0.404-1.497,0.699-2.393l1.181-3.437
		h1.093l0.413,7.106h-0.837L93.206,22.429z"/>
	<path fill="#D94432" d="M98.963,22.218h-2.579v2.562h2.874v0.77h-3.73v-7.106h3.583v0.77h-2.727v2.246h2.579V22.218z"/>
</g>
<text transform="matrix(1 0 0 1 42.8848 30.0347)"><tspan x="0" y="0" fill="#808080" font-family="'GillSans-Italic'" font-size="4.3082">Solução fácil e eficaz para criação </tspan><tspan x="0" y="4.5" fill="#808080" font-family="'GillSans-Italic'" font-size="4.3082">de pesquisas</tspan></text>
</svg>
